<svg xmlns="http://www.w3.org/2000/svg" viewBox="0 0 1360 13500"><path d="M931.6 13499.9c-21.4-5-42.9-9.2-64-15.1-62.4-17.4-118.6-47.1-169.2-87.5-67-53.4-117.5-119.5-150.8-198.4-15.9-37.5-26.6-76.6-32.5-117-5-34.3-7-68.8-7-103.4.1-1916.6.1-3833.2 0-5749.7 0-36.5 5.2-24.8-21.8-51.5-27.9-27.6-56.7-54.4-85-81.7-6.7-6.5-12.8-13.5-19.4-20.1-50.7-50.2-100.8-101-152.2-150.4-68.3-65.5-135-132.7-202.5-198.9-5.2-5.1-10.2-10.4-16.1-16.5 3-4 5.2-7.9 8.3-11 25.9-26 51.9-51.8 77.8-77.7 66.1-65.9 132.2-131.8 198.3-197.6 27.4-27.3 54.6-54.7 82.1-81.8 37.9-37.5 76.1-74.7 114.1-112.1 3.3-3.3 6.5-6.7 9.9-9.9 4.7-4.3 6.9-9.5 6.6-16-.3-8 0-16 0-24 0-1882.6 0-3765.2-.2-5647.7 0-27.4 1.3-54.6 4-81.7 4.8-47.9 17.3-94.1 35.9-138.6 17.1-40.8 39.5-78.4 66.5-113.3 22.9-29.6 48.6-56.4 77.8-79.8 27.6-22.1 56.7-42 88.3-57.9 40-20.2 81.8-35.4 125.8-44.3 15-3 30.1-5.4 45.2-8 6.6-.1 13.1-.3 19.7-.4 7-.1 14.4 2.6 20.3-3.6h376v100c-8 .2-16 .7-24 .7-111.3 0-222.7 0-334 .1-30 0-59.9 3.2-89.3 8.8-20.1 3.8-39.2 12.6-58.6 19.6-6.9 2.5-13.2 6.3-19.9 9.2-52.3 22.8-95.9 57.2-133.8 99.3-17.8 19.9-33.7 41.3-46.1 65-15.5 29.5-30 59.4-39.9 91.4-5.9 19.2-8.8 38.8-10.6 58.8-4.4 48.5-3.2 97.2-3.2 145.8v5583.9c0 16-1.3 31.7-4.4 47.6-3.7 19.1-12.8 34.8-25.4 48.9-2.7 3-5.6 5.7-8.4 8.5-133.6 133.2-267.3 266.4-400.9 399.6-5.2 5.2-10.2 10.4-16.2 16.5 8.1 9.1 15.9 18.8 24.7 27.5 10.8 10.8 22.7 20.5 33.6 31.2 45.6 44.9 90.9 90.1 136.5 135 8.5 8.4 18.1 15.8 26.3 24.5 20.7 21.6 42.7 41.8 63.8 62.9 21.2 21.3 42.6 42.3 63.9 63.4l63.9 63.3c2.4 2.3 4.6 4.8 7.1 7 25.3 22.3 33.8 51.6 35.3 83.9.3 7.3.1 14.7.1 22 0 1917.3 0 3834.6-.2 5751.9 0 27.4 2.3 54.5 4.1 81.8 2.3 33.6 13 65.2 26.7 95.6 15.3 34.1 32.5 67 56.3 96.4 25.7 31.8 54.8 60.5 88.6 82.8 40.6 26.8 84.9 47.5 132.6 59.1 16.7 4 34.1 5.2 51.2 7.7 2.5 3.6 5.2 3.9 8 .4l384.1.3c2.6 0 5.3-.4 7.9-.6v100h-392c-2.8-1.3-5.6-3.2-8.6-3.6-5.1-.6-10.3-.2-15.5-.2-6.4-.2-13-.3-19.6-.4z" fill="#fab975"/></svg>