<svg id="Layer_1" xmlns="http://www.w3.org/2000/svg" viewBox="0 0 31.1 17.3"><style>.st0{fill:#97c23e}</style><path class="st0" d="M13.9 5.8c.1-.2.2-.5.4-.7.8-1.2 1.9-2.2 3.2-3C19.3 1 21.2.4 23.2.2c1.2-.1 2.5-.2 3.7-.2 1.4 0 2.7.2 4.1.3 0 0 .1 0 .1.1v.1c-.9.8-1.4 1.7-1.7 2.8-.4 1.3-.7 2.6-1.1 4-.6 1.9-1.5 3.6-2.9 5-1.6 1.5-3.4 2.7-5.4 3.6-1.2.5-2.5.8-3.8 1.1l-.9.3c-.2.1-.3 0-.3-.2 0-2 .6-3.8 1.4-5.6.5-.9 1.1-1.8 1.7-2.7.6-.7 1.2-1.4 1.9-2.1.6-.6 1.2-1.3 1.9-1.9.5-.4 1-.8 1.5-1.1.2-.1.4-.4.6-.5.3-.1.5-.3.7-.4.2-.1.5-.2.7-.4-2.2.6-4.1 1.6-5.9 2.9-1.8 1.4-3.1 3-4.3 4.9-1.1 1.9-1.8 4-2 6.2-.8-.7-1.5-3.8-1.2-5.4.6-2.7 1.3-4.8 1.9-5.2 0 .1 0 .1 0 0"/><path class="st0" d="M0 2.1l1.8-.3c1-.1 2-.2 3-.1 2.2.1 4.3.4 6.3 1.4.8.4 1.5.9 2.2 1.5.1.1.1.3.1.3-.5 1.1-1 2.1-1.6 3.2-1.3-1.2-2.7-2.2-4.3-3 0 0 0 .1-.1.1.2.2.5.4.7.6.7.6 1.3 1.1 1.9 1.7.5.5.9 1.1 1.3 1.6.2.3.2.5.2.9-.3 1.9-.3 3.7.4 5.6h-.7c-2.4-.4-4.5-1.4-6.2-3.1-1.2-1.2-2-2.8-2.5-4.4-.2-1.2-.5-2.2-.8-3.3-.2-.7-.5-1.5-1.1-2.1-.2-.1-.4-.3-.6-.5v-.1"/></svg>