<svg xmlns="http://www.w3.org/2000/svg" viewBox="0 0 22.6 22.6"><path d="M0 11.3C0 5.2 5 0 11.3 0c6.3 0 11.3 5.1 11.3 11.3 0 6.2-5 11.3-11.3 11.3C5 22.6 0 17.4 0 11.3m5.8-3.9v.2c0 .7 0 1.4.1 2.1 0 .6 0 1.2.1 1.8 0 .1 0 .2.2.2l1.8.6.1.1v.7H8c-.8-.3-1.6-.6-2.5-.8-.2-.1-.3-.2-.3-.4V11c0-1-.1-2-.1-3 0-.5-.1-1-.1-1.4v-.1l-.8-.8c-2.4 2.9-3.1 8.2.5 11.9 3.5 3.7 9 3.5 12.2.9v-.1l-1.6-1.6c-.1-.1-.1 0-.2 0-.5.3-1 .5-1.5.8-.1.1-.3.1-.4 0l-4.5-1.5c-.2-.1-.3-.2-.3-.4 0-.7 0-1.3-.1-2 0-1-.1-2.1-.1-3.1 0-.2.1-.3.3-.4 0 0 .1 0 .1-.1-.9-.9-1.9-1.8-2.8-2.7zm7.8-.7c-1 .4-2 .7-2.9 1.1l-.1.1v.9c0 .2 0 .4.2.5 0 0 .1.1.2 0 .4-.1.8-.3 1.2-.4h.2l2.4.3c.8.1 1.5.2 2.3.4.4.1.5.2.5.6v.2c0 1.7-.1 3.3-.1 5 0 .2 0 .3-.1.5l1.2 1.2c2.6-3.1 3-8.7-1-12.4-3.8-3.5-9-3-11.9-.6l1.4 1.4h.2c.5-.2 1.1-.4 1.7-.6h.2c.8.1 1.6.3 2.4.4.8.1 1.5.2 2.3.4.4.1.5.2.5.5v2.7c-.2 0-.5-.1-.7-.1V6.7zM13 16.8v-2.1c0-.2 0-.2-.1-.4-1-1-2.1-2-3.1-3.1-.2-.1-.5-.1-.8-.2v.3c0 1.3.1 2.7.1 4.1 0 .1 0 .1.1.2 1 .3 1.9.6 2.9 1 .3 0 .6.1.9.2zm3.7-1.6c.1-1.5.1-3 .2-4.5-1 .4-2 .7-2.9 1.1 0 0-.1 0-.1.1-.1.1 0 .5.1.6l1.8 1.8.9.9zm-9-9l.6.6.1.1c.5 0 1 .1 1.4.2.2 0 .4.1.6 0 .7-.3 1.4-.6 2.1-.8 0 0 .1 0 .2-.1h-.2c-1-.2-1.9-.3-2.7-.5-.3-.1-.7-.1-1 .1-.4.1-.7.2-1.1.4zm3.8 3.7s0 .1 0 0c.2.3.5.5.7.7.2.2.4.4.7.4.1 0 .2.1.3.1h.3l2.1-.9s.1 0 .1-.1h-.2c-1-.2-2-.3-3.1-.5h-.2c-.1.1-.4.2-.7.3zm3.2 6.4l-.9-.9v1.4c.3-.2.6-.4.9-.5zm-4.8-8v-.4c-.2 0-.4-.1-.5-.1l.5.5z" fill="#97c23e"/></svg>