<svg id="Layer_1" xmlns="http://www.w3.org/2000/svg" viewBox="0 0 23.1 23.1"><style>.st0{fill:#97c23e}</style><path class="st0" d="M11.6 0C18 0 23.2 5.2 23.2 11.6c0 6.4-5.2 11.6-11.6 11.6C5.2 23.2 0 17.9 0 11.5 0 5.2 5.2 0 11.6 0M4.4 6.3C1.8 9.8 2 15.4 6.1 18.6c3.6 2.8 8.3 2.1 10.8.1l-3.8-3.8h3.4c.2 0 .4.1.5.2.6.6 1.1 1.2 1.7 1.8 2.3-2.9 2.7-8-.8-11.5-3.5-3.6-8.7-3.3-11.6-1 1.3 1.3 2.6 2.6 3.9 4H6.6c-.1 0-.2-.1-.3-.1-.6-.7-1.2-1.4-1.9-2z"/><path class="st0" d="M10.1 10.7V13h.3v.7H8.9V13h.3v-2.6h-.3v-.8h2.2l.6 2.1h.1l.6-2.1h2.2v.7h-.3V13h.3v.7h-1.8V13h.3v-2.3c-.1.5-.2 1-.4 1.5-.1.5-.3 1-.4 1.5 0 .1-.1.1-.2.2h-.9c-.1 0-.2 0-.2-.2-.2-.8-.5-1.7-.7-2.5-.1-.2-.1-.4-.2-.5m-2 .7h-1c0-.1 0-.1-.1-.2-.2-.7-1-.7-1.3-.1-.2.3-.2.7-.2 1 .1.3.2.6.5.7.3.2.6.2.8 0 .2-.2.2-.4.1-.5 0 0-.1-.1-.2-.1-.2-.1-.2-.4-.1-.6h1.9v.6c-.1 0-.2 0-.2.1v1.4H7.2c-.1 0-.1-.1-.2-.1-.1-.1 0-.1-.2-.1s-.3.2-.5.3c-.4.1-.8 0-1.2-.2-.6-.3-.9-.9-1-1.6-.1-.6 0-1.2.4-1.7.5-.7 1.8-1.2 2.6-.3 0-.5.6-.4 1-.4v1.8zM17 9.5c1.2 0 2 .6 2.1 1.9 0 .4 0 .8-.1 1.1-.1.6-.5 1-1.1 1.2-.6.2-1.2.2-1.8 0-.5-.2-.8-.5-1-1-.3-.6-.3-1.3-.1-1.9.3-.8 1-1.3 2-1.3m-.7 2.2c0 .3.1.6.2.9.1.2.2.4.5.4s.4-.3.5-.5c.2-.5.2-1 0-1.5-.1-.3-.3-.5-.6-.5s-.4.3-.5.5c-.1.2-.1.4-.1.7z"/></svg>