<svg id="Layer_1" xmlns="http://www.w3.org/2000/svg" viewBox="0 0 34.4 22.7"><style>.st0{fill:#97c23e}</style><path class="st0" d="M6.5 9.1c-.5-1.2.1-1.8.9-2.4.2-.1.3-.2.4-.3 1-.6 1.6-1.5 1.8-2.6.2-.3.3-.7.4-1.1.2-.5.7-.8 1.3-.8h1.8c.7 0 1.2-.2 1.8-.6.4-.3.8-.6 1.1-.9.8-.6 1.5-.6 2.3 0 2.1 1.7 2.1 1.4 4.4 1.4 1.1 0 1.4.3 1.8 1.3.1.3.2.7.3 1.1.2.9.8 1.6 1.6 2.1.3.3.6.5.9.7.6.4.8 1 .6 1.8V9h6.5c-.1.2-.1.2-.2.3-.4.6-.9 1.2-1.3 1.8-.4.6-.4.6 0 1.2.5.6 1 1.3 1.5 2H28c0 .8-.5 1.3-1.1 1.6-1.3.7-2.1 1.8-2.4 3.3 0 .2-.1.4-.2.6-.3.6-.7.9-1.4.9h-1.4c-1-.1-1.7.3-2.4.9-.3.3-.6.5-.9.7-.7.4-1.3.4-2 0-.3-.2-.7-.5-1-.7-.7-.6-1.4-.9-2.4-.8h-1.4c-.7 0-1.1-.3-1.4-1-.1-.3-.2-.6-.3-1-.2-1.2-.9-2-1.9-2.6-.2-.1-.3-.2-.5-.3-.5-.4-1-.8-1-1.5H0c.4-.6.8-1.1 1.2-1.6.8-1.2.9-.8 0-2C.9 10.2.5 9.7 0 9.1h6.5zM17.1 20c4.9 0 8.7-3.8 8.8-8.7 0-4.7-3.9-8.7-8.6-8.7-4.8 0-8.7 3.9-8.7 8.7-.1 4.8 3.7 8.7 8.5 8.7z"/><path class="st0" d="M17.1 3.8c4.2 0 7.6 3.4 7.6 7.5 0 4.2-3.4 7.6-7.5 7.6-4.2 0-7.6-3.4-7.6-7.5 0-4.2 3.4-7.6 7.5-7.6m7.4 7.6c0-4-3.3-7.3-7.3-7.4-4 0-7.3 3.3-7.3 7.3s3.3 7.4 7.3 7.4 7.3-3.3 7.3-7.3z"/><path class="st0" d="M18.1 5.9v7.5c0 .9-.1.9.9.9.8 0 .8 0 .8.8v.4H15v-.9c0-.1.2-.3.3-.3h.9c.1 0 .4-.2.4-.3V8.3c-.4.2-.8.4-1.1.6-.1-.4-.1-.9-.1-.9s1.9-1.5 2.7-2.1"/></svg>