<svg xmlns="http://www.w3.org/2000/svg" viewBox="0 0 326.6 93.7"><path d="M282 2.6c2.8 4.9 5.4 9.4 8.1 14.1h-16.2c2.6-4.7 5.3-9.3 8.1-14.1m26 .8c2.8 4.9 5.4 9.4 8.1 14.1h-16.2c2.6-4.7 5.3-9.3 8.1-14.1m18.6 14.2h-2.2l2.2-3.8zM282 47.2c2.8 4.8 5.4 9.4 8.2 14.1h-16.3c2.6-4.7 5.2-9.2 8.1-14.1m26 .5c2.8 4.8 5.4 9.4 8.2 14.1h-16.3c2.7-4.6 5.3-9.2 8.1-14.1m18.6 14.8h-2.2l2.2-3.9zm-43.5 31.2h-2.2c.4-.6.7-1.3 1.1-1.9.3.6.7 1.3 1.1 1.9M282 36.1c-2.8-4.9-5.4-9.4-8.2-14.1h16.3c-2.7 4.7-5.3 9.2-8.1 14.1m26 .8c-2.8-4.9-5.4-9.4-8.2-14.1h16.3c-2.7 4.7-5.3 9.2-8.1 14.1m18.6-10.3l-2.2-3.9h2.2zm-65 12.1c2.7-4.7 5.3-9.2 8.1-14 2.8 4.8 5.4 9.3 8.1 14h-16.2zm25.3.2c2.7-4.7 5.3-9.2 8.1-14 2.8 4.8 5.4 9.3 8.1 14h-16.2zm25.3.2c2.7-4.7 5.3-9.2 8.1-14l6.3 10.8v3.2h-14.4zm-50.5 44.1c2.7-4.7 5.3-9.2 8.1-14 2.8 4.8 5.4 9.3 8.1 14h-16.2zm16.1 6c-.9 1.5-1.7 3-2.6 4.5h-11c-.9-1.5-1.7-3-2.6-4.5h16.2zm48.8 0h-14.3c.9 1.5 1.7 3 2.6 4.5h11c.3-.4.5-.9.8-1.3m-65-47.8h16.1c-2.7 4.7-5.3 9.2-8.1 14-2.7-4.7-5.3-9.2-8-14m26 .8h16.1c-2.7 4.7-5.3 9.2-8.1 14-2.7-4.7-5.3-9.2-8-14m24.6 0h14.3v3.1l-6.3 10.9c-2.7-4.7-5.3-9.2-8-14M269.8 14c-2.8-4.8-5.4-9.3-8.1-14h16.2c-2.7 4.7-5.3 9.2-8.1 14m25.2 0c-2.8-4.8-5.4-9.3-8.1-14h16.2c-2.7 4.7-5.3 9.2-8.1 14m25.3 0c-2.8-4.8-5.4-9.3-8.1-14h14.3v3.2L320.3 14zM253.1.3c-2.6 4.4-5 8.6-7.6 13.1-2.6-4.5-5-8.7-7.6-13.1h15.2zm12.1 16.1H250c2.5-4.4 5-8.6 7.6-13.1 2.6 4.4 5 8.6 7.6 13.1m0 44.6H250c2.5-4.4 5-8.7 7.6-13.2 2.6 4.5 5 8.7 7.6 13.2M250 66.9h15.2c-2.6 4.4-5 8.6-7.6 13.2-2.6-4.5-5-8.7-7.6-13.2m8.3 26.8h-1.5c.2-.4.5-.9.7-1.3.3.4.6.9.8 1.3m50.4 0h-1.5c.2-.4.5-.9.7-1.3.3.4.6.9.8 1.3m-51.1-58.2c-2.6-4.4-5-8.6-7.5-13h15c-2.5 4.3-4.9 8.5-7.5 13M245.5 58c-2.6-4.5-5-8.7-7.6-13.1H253c-2.5 4.4-4.9 8.6-7.5 13.1m7.5 31.6c-.8 1.4-1.6 2.8-2.4 4.1h-10.4c-.8-1.4-1.6-2.7-2.4-4.1H253zm50.3 0c-.8 1.4-1.6 2.8-2.4 4.1h-10.4c-.8-1.4-1.6-2.7-2.4-4.1h15.2zM253 38.3h-15.1c2.5-4.4 5-8.6 7.6-13.1 2.5 4.5 5 8.7 7.5 13.1m-7.5 31.5c2.6 4.5 5 8.7 7.5 13.1h-15.1c2.5-4.3 4.9-8.5 7.6-13.1m-17.3-31.7H214c2.4-4.2 4.7-8.1 7.1-12.3 2.4 4.2 4.7 8.1 7.1 12.3m12-15.4c-2.4 4.1-4.6 8-7 12.2-2.4-4.1-4.6-8-7.1-12.2h14.1zm-14.2 71c.8-1.3 1.5-2.6 2.3-3.9H214c.8 1.3 1.5 2.6 2.3 3.9h9.7zm-11.9-11.1c2.4-4.1 4.6-8 7-12.2 2.4 4.2 4.7 8.1 7 12.2h-14zm7-25.1c-2.4-4.2-4.7-8.1-7.1-12.2h14.1c-2.3 4-4.5 7.9-7 12.2M228.2.6c-2.4 4.1-4.6 8-7.1 12.2-2.4-4.2-4.7-8.1-7-12.2h14.1zM240.3 16h-14c2.3-4.1 4.6-8 7-12.2 2.3 4.1 4.5 8 7 12.2m-14 44.5c2.3-4.1 4.6-8 7-12.1 2.4 4.1 4.6 8 7 12.1h-14zm-.2 6.7h14.2c-2.4 4.2-4.6 8.1-7 12.3-2.5-4.2-4.7-8.1-7.2-12.3m7.5 26.5h-.8c.1-.2.3-.4.4-.6.2.2.3.4.4.6m-31.2-78c2.2-3.8 4.2-7.3 6.5-11.3 2.2 3.9 4.3 7.4 6.5 11.3h-13zm13.1 44.8h-13.2c2.2-3.8 4.3-7.5 6.6-11.4 2.2 3.9 4.3 7.5 6.6 11.4m-25.2-22.8c2.2-3.8 4.3-7.4 6.5-11.3 2.3 3.9 4.3 7.5 6.5 11.3h-13zm18.6 41.1c-2.3-3.9-4.3-7.5-6.5-11.3h13c-2.2 3.7-4.2 7.3-6.5 11.3m-5.6 11.4c-.7 1.2-1.4 2.3-2 3.5h-9c-.7-1.2-1.3-2.3-2-3.5h13zm5.6-56c-2.3-3.9-4.3-7.5-6.5-11.3h13.1c-2.3 3.8-4.4 7.4-6.6 11.3m-18.6 48c2.2-3.8 4.2-7.3 6.5-11.2 2.2 3.8 4.3 7.4 6.5 11.2h-13zm0-36.6h13c-2.2 3.8-4.2 7.3-6.5 11.3-2.2-3.8-4.3-7.4-6.5-11.3m13-44.5c-2.2 3.8-4.3 7.4-6.5 11.2-2.2-3.9-4.3-7.4-6.5-11.2h13zm-12.8 14.3h-12c2-3.5 3.9-6.8 6-10.4 2.1 3.7 4 6.9 6 10.4m0 44.7h-12c2-3.5 3.9-6.8 6-10.4 2 3.5 3.9 6.8 6 10.4m-12-22.8h-11.9c2-3.5 3.9-6.8 6-10.4 1.9 3.6 3.8 6.9 5.9 10.4m11.9 30.6c-2 3.5-3.9 6.7-5.9 10.3-2-3.5-3.9-6.8-5.9-10.3h11.8zm-11.9 22.7c-.6 1-1.2 2.1-1.8 3.1h-8.4c-.6-1-1.2-2-1.8-3.1h12zm6-57c-2.1-3.6-4-6.8-6-10.3h11.8c-1.8 3.4-3.7 6.7-5.8 10.3m-18 12.4h11.9c-2 3.5-3.9 6.7-5.9 10.3-2-3.5-3.9-6.8-6-10.3m.1 35.8c2-3.4 3.9-6.7 5.9-10.3 2 3.5 3.9 6.8 5.9 10.3h-11.8zm0-80.4h11.9c-2 3.4-3.9 6.7-5.9 10.3-2.1-3.5-4-6.7-6-10.3m-6.4 4.2c1.9 3.3 3.6 6.2 5.4 9.4h-10.7c1.7-3.1 3.4-6.1 5.3-9.4m-5.5 17.9h10.9c-1.9 3.3-3.6 6.3-5.4 9.4-1.9-3.1-3.6-6.1-5.5-9.4m-11.9 13.4c1.8-3.2 3.5-6.1 5.4-9.4 1.9 3.2 3.6 6.2 5.4 9.4h-10.8zm22.8 22.8h-10.8c1.8-3.2 3.5-6.1 5.4-9.4 1.8 3.3 3.5 6.2 5.4 9.4m-5.4 17.9c-1.9-3.2-3.6-6.2-5.4-9.4h10.7c-1.7 3.1-3.4 6.1-5.3 9.4m-12-21.9c-1.9-3.3-3.6-6.2-5.4-9.4h10.8c-1.8 3.1-3.5 6.1-5.4 9.4m0 16.4c1.8 3.2 3.6 6.2 5.4 9.4h-10.8c1.8-3.2 3.5-6.1 5.4-9.4m5.4 18.8c-.5.9-1.1 1.8-1.6 2.8h-7.6c-.5-.9-1-1.8-1.6-2.8h10.8zm-5.4-79.8c-1.9-3.3-3.6-6.2-5.4-9.4h10.8c-1.8 3.2-3.5 6.1-5.4 9.4m-24.3 17c1.7 3 3.3 5.7 4.9 8.6H119c1.6-2.9 3.1-5.5 4.9-8.6m11.9-21.8c1.7 3 3.2 5.6 4.9 8.5h-9.8c1.6-2.8 3.1-5.4 4.9-8.5m-7 84.9c-.5.9-1 1.7-1.4 2.5h-7c-.5-.8-1-1.7-1.5-2.5h9.9zm-4.9-36c-1.8-3.1-3.3-5.7-4.9-8.5h9.8c-1.7 2.7-3.2 5.4-4.9 8.5m7 4.2c1.7-2.9 3.2-5.5 4.9-8.5 1.7 2.9 3.2 5.6 4.9 8.5h-9.8zm-2.1 21.9h-9.9c1.6-2.9 3.2-5.5 4.9-8.6 1.8 3 3.3 5.6 5 8.6m7-49c-1.8-3-3.3-5.7-5-8.5h9.8c-1.5 2.8-3 5.5-4.8 8.5m-11.9-21.8c-1.7-3-3.3-5.6-5-8.6h9.9c-1.7 2.9-3.2 5.6-4.9 8.6m6.9 57.9h9.9c-1.7 2.9-3.2 5.6-4.9 8.6-1.7-3-3.2-5.7-5-8.6m-26.9 23.1l-1.2 2.1h-6.3l-1.2-2.1h8.7zm-4.4-18.2c1.5 2.6 2.9 5 4.4 7.6h-8.7c1.4-2.5 2.7-4.8 4.3-7.6m0-44.6c1.5 2.7 2.9 5 4.4 7.6h-8.8c1.5-2.5 2.9-4.9 4.4-7.6m0 25.9c-1.5-2.6-2.9-5-4.4-7.6h8.7c-1.3 2.5-2.7 4.8-4.3 7.6m16.4-40H107c1.5-2.6 2.9-5 4.4-7.6 1.6 2.6 2.9 4.9 4.5 7.6m0 44.6H107c1.5-2.6 2.9-5 4.4-7.6 1.6 2.6 2.9 5 4.5 7.6M99.5 9.9C98 7.4 96.7 5 95.2 2.4h8.7c-1.5 2.5-2.9 4.9-4.4 7.5m16.3 58.9c-1.5 2.5-2.8 4.9-4.3 7.5-1.5-2.5-2.8-4.9-4.4-7.5h8.7zm-8.7-44.6h8.7c-1.5 2.5-2.8 4.9-4.3 7.5-1.5-2.6-2.9-4.9-4.4-7.5M79.1 36h-7.7c1.3-2.3 2.5-4.3 3.8-6.7 1.4 2.3 2.5 4.4 3.9 6.7M78 93.7c.3-.6.7-1.2 1-1.8h-7.7c.4.6.7 1.2 1 1.8H78zm1-46.3c-1.3 2.2-2.4 4.2-3.8 6.6-1.3-2.3-2.5-4.3-3.8-6.6H79zm-7.6 33.1c1.3-2.3 2.4-4.3 3.8-6.7 1.3 2.3 2.5 4.4 3.8 6.7h-7.6zm19.5-66.3h-7.6c1.3-2.2 2.5-4.3 3.8-6.6 1.3 2.2 2.5 4.2 3.8 6.6M75.2 9.4C73.8 7 72.7 5 71.4 2.8H79c-1.2 2.1-2.4 4.1-3.8 6.6m15.7 49.4h-7.6c1.3-2.2 2.4-4.2 3.8-6.6 1.3 2.2 2.5 4.3 3.8 6.6m-3.8 16.9c-1.3-2.3-2.5-4.3-3.8-6.5h7.5c-1.2 2.1-2.4 4.2-3.7 6.5m-3.8-51.2h7.6c-1.2 2.1-2.4 4.2-3.7 6.6-1.4-2.3-2.6-4.3-3.9-6.6m-20.6 6c-1.2-2-2.2-3.8-3.3-5.8H66c-1.1 1.9-2.1 3.7-3.3 5.8m0 22.3c1.2 2 2.2 3.7 3.3 5.7h-6.6c1.2-2 2.1-3.6 3.3-5.7m0 22.3c-1.2-2.1-2.2-3.8-3.3-5.7H66c-1.1 1.8-2.1 3.6-3.3 5.7M50.9 29.9c1.2 2 2.1 3.7 3.2 5.6h-6.5c1.2-1.9 2.2-3.7 3.3-5.6m3.2 62.4c-.3.5-.5.9-.8 1.4h-4.9c-.3-.4-.5-.9-.8-1.4h6.5zm12-78.3h-6.7c1.1-2 2.1-3.7 3.3-5.8 1.2 2 2.2 3.7 3.4 5.8M50.9 53.4c-1.1-1.9-2.1-3.6-3.3-5.6h6.5c-1.1 1.9-2.1 3.6-3.2 5.6m3.3 26.8h-6.5c1.1-1.9 2.1-3.7 3.2-5.7 1.1 1.9 2.1 3.7 3.3 5.7M47.6 3.1h6.5c-1.1 1.9-2 3.6-3.2 5.7-1.1-2-2.1-3.7-3.3-5.7m-21 49.7c-1-1.8-1.8-3.2-2.8-4.9h5.5c-.9 1.7-1.7 3.1-2.7 4.9m0-44.6c-1-1.8-1.8-3.1-2.8-4.8h5.4c-.8 1.5-1.6 3-2.6 4.8m11.8 45.2c1 1.7 1.8 3.1 2.7 4.8h-5.4c.9-1.6 1.7-3 2.7-4.8m-2.8-39.8c.9-1.6 1.7-3.1 2.7-4.8 1 1.7 1.8 3.2 2.8 4.8h-5.5zM35.5 25H41c-.9 1.6-1.7 3.1-2.7 4.8-.9-1.6-1.7-3-2.8-4.8m5.7 44.6c-1 1.7-1.8 3.2-2.8 4.8-.9-1.6-1.8-3.1-2.7-4.8h5.5zM24.4 93.7c-.2-.3-.4-.7-.6-1h5.5c-.2.4-.4.7-.6 1h-4.3zm4.9-13.9h-5.4c.9-1.6 1.7-3 2.7-4.6.9 1.5 1.7 2.9 2.7 4.6m0-44.6h-5.4c.9-1.6 1.7-3 2.7-4.8.9 1.7 1.7 3.2 2.7 4.8m-27 40.4c.8 1.5 1.5 2.6 2.2 4H0c.8-1.4 1.4-2.5 2.3-4m2.2-27.2c-.8 1.3-1.4 2.4-2.2 3.8-.8-1.3-1.4-2.4-2.2-3.8h4.4zM0 34.9c.8-1.4 1.5-2.5 2.2-3.8.8 1.4 1.4 2.5 2.2 3.8H0zm4 58.8c.1-.2.3-.5.4-.8H.1c.1.3.3.5.4.8H4zM.1 3.7h4.4C3.7 5 3.1 6.2 2.3 7.6 1.5 6.3.9 5.1.1 3.7m11.7 9.5c.8-1.3 1.4-2.4 2.2-3.7.8 1.3 1.4 2.4 2.2 3.7h-4.4zM14 54.1c.8 1.4 1.4 2.5 2.2 3.8h-4.3c.7-1.3 1.3-2.4 2.1-3.8m-2.2-28.7h4.4c-.7 1.2-1.3 2.3-2.1 3.8-.9-1.3-1.5-2.4-2.3-3.8m.1 44.6h4.3c-.8 1.3-1.4 2.5-2.2 3.8-.8-1.4-1.4-2.5-2.1-3.8M282 80.6c-2.8-4.9-5.4-9.4-8.2-14.1h16.3c-2.7 4.6-5.3 9.1-8.1 14.1m5.7 3c2.7-4.7 5.3-9.2 8.1-14 2.8 4.8 5.4 9.3 8.1 14h-16.2zm20.3-3c-2.8-4.9-5.4-9.4-8.2-14.1h16.3c-2.7 4.6-5.3 9.1-8.1 14.1m4.3 3c2.7-4.7 5.3-9.2 8.1-14l6.3 10.8v3.2h-14.4zm14.3-13.7l-2.2-3.9h2.2z" fill="#f2f9fc"/></svg>