<svg id="Layer_1" xmlns="http://www.w3.org/2000/svg" viewBox="0 0 797.6 415.9"><style>.st1{fill-rule:evenodd;clip-rule:evenodd}.st1,.st2{fill:#f2f9fc}</style><path d="M387.6 111.4l-.1.3-.5 1.1-.1.2.2.2 1 1.4.3.5.4-.4 1.1-1.1.1-.1v-.2l.1-1.3v-.5h-.5l-1.7-.1h-.3zm2.2 17.6l-.1 1.5v.3l.2.2 1 .7.4.3.3-.5.6-1.1.2-.4-.4-.2-1.5-1-.7-.5v.7zm-1.3 4.2l-.6-.6-.2.8-.5 1.8-.1.3.3.2 1 .7.5.3.3-.5.7-1.3.2-.3-.2-.3-1.4-1.1zm3-5.3v.1l.1.1 1.1.9.4.3.3-.4 1.1-1.5.3-.4-.4-.3-1.8-1.3-.3-.2-.3.2-.9.7-.3.2.1.3.6 1.3zm16.4-27v.3l.2.1 2.4 1.3.7.4.1-.7.2-1.9v-.2l-.1-.2-1.5-1.8-.3-.4-.4.3-1.1 1-.2.2v1.6zm-13.7-47.2v.3l.3.1 2.1.6h.2l2.3-.6.6-.1-.2-.5-1.3-3-.1-.1-.1-.1-1.7-1.3-.3-.3-.3.3-1.2 1.1-.1.1v.2l-.2 1.9v1.4zm-20.8 69.7l-.1.3-.3 1.3v.2l.1.2 1.1 1.5.3.4.4-.4 1.2-1.3.2-.2-.1-.3-.5-2-.1-.5-.5.1-1.5.5-.2.2zm-2.3 18l-.2-.1-1.5-.8-.4-.2-.2.4-1.8 2.6-.2.3.2.3 2.2 2.9.2.3.3-.2 1.5-.7.3-.1v-.4l-.5-4 .1-.3zm-4.8-93.6l-.1-.4-.8-2.4-.1-.2-.2-.1-2.9-1.2-.3-.1-.2.2-2.5 2.1-.2.1v.2l-.1 1.7v.2l.2.2 2.1 1.9.2.2.3-.1L366 48l.3-.2zm-2.5 96.2l-.5.3-2.7 1.5-.1.1-.1.1-.7 1.4-.3.5.5.2 2.2.8h.2l2.2-.4.5-.1-.1-.5-.9-3.3-.2-.6zm3.6-98.4l-.2.4-.5 1.1-.1.1v.2l.5 2.2.1.4h.4l4.3-.1h.3l.1-.2 1.7-2.8.2-.3-.2-.3-1.4-2.3-.4-.6-.4.6-1.6 2.4-2.4-.6-.4-.2zm16.1 73.2l1.4 1 .3.2.3-.2 1.9-1.1.4-.2-.2-.4-1.1-1.9-.1-.2-.2-.1-1.6-.5-.3-.1-.2.2-1.5 1.3-.4.3.3.4 1 1.3zm2.3-49.8l.1.1h2.9v-.5l-.1-2v-.2l-.1-.1-1.5-2-.2-.3-.4.2-1.9.8-.2.1v.2l-.3 1.5v.3l.2.2 1.5 1.7zm.3 62.4l-.3-.1-1.5-.4-.4-.1-.2.3-1 1.8-.2.3.3.3 1.8 1.7.3.3 1.5-1.5.2-.2-.1-.3-.5-1.9.1-.2zM372 40.2l.2.5.5-.2 1.8-.7.4-.2-.1-.4-.7-2.3-.2-.6-.5.3-1.7 1.1-.3.2.1.4.5 1.9zm61.4 28.1l-.2 1.6-.8.3-1-3.8-.2-.6-.5.3-6.3 3.1-.2.1-.1.2-2.3 5.6v.2l-.1 1.8v.3l.3.1 2.3 1 4.1 3.5 4.6 3.2.2.2.3-.1 2.3-1.2.2-.1v-.2l.5-3.2v-.2l-.1-.2-1.6-1.8 1.9-3.1.1-.1v-.1l.2-3.7v-.2l-.2-.2-2.8-2.8-.7-.7.1.8zm114.8 40.3l-.4-.1-5.1-.7-.8-.1.3.8 1 2.3.1.1.1.1 2.3 1.4.2.1.2-.1 2-.5.4-.1v-.4l-.2-2.5-.1-.3zm11.4-44l.4.1.1-.4.8-2.1.2-.5-.5-.2-2.1-.8-.5-.2-.1.5-.7 2.4-.1.5.5.1 2 .6zm-143.7 5.8v.2l.2.1 3.4 2.4.2.2.3-.1 2.4-1.3.2-.1.1-.2.7-2.4.1-.4.1.1.3-.1 6.7-3 .3-.1V63l2.4-1.3.4-.2-.2-.4-1-2-1.6-4.6v-.1l-.1-.1-2.9-2.6-.3-.3-.3.3-2.6 2.6-2.6 1.7-.3.2.1.3.6 3-2.6 3.4-.1.1v2.5l.2.1 3.4 3.1-.3-.1-5.1-2-.2-.1-.2.1-2 1.1-.3.2.1.4.5 2.1zM557.3 98l-.3.3-1.3 1.3-.2.2.1.3.9 4.1.1.4h2.9l.1-.4.4-3.6v-.3l-.2-.2-2.1-1.8-.4-.3zm2.8 5.2v5.4l.6-.1 5.2-1.1h.2l4.8-2.5.4-.2-.2-.4-1.6-3.7-.1-.2h-.3l-3.2-.4-2.4-.5-.3-.1-.2.3-1.7 2.6-1 1.1-.2-.2zm106.1-76l.3.4.4-.4 1.2-1.2.1-.1v-.1l1.5-7.6 1.8-3.5.1-.3-.2-.2-2-2.8-.2-.2h-.3l-5.1.4h-.2l-.1.2-3.1 4.6-.1.1v3.9l.1.1 5.8 6.7zm-33.9 58.7l.3.2.3-.2 1.9-1.1.3-.2-.1-.4-.7-2.3-.1-.4-.4.1-2.2.4-.3.1-.1.3-.7 1.9-.1.4.3.2 1.6 1zm-69-4.7l.1.3h.3l9.9.1h.3l.1-.3 2.9-5.3.1-.2-.1-.2-1.9-4.1-.3-.7-.5.5-1.9 2.1-3.8-.3h-.3l-.2.3-1 1.6h-2.3l-.1.4-.3 1.8-2.2-.1h-.8l.3.7 1.7 3.4zm-24.7 11v.1l.1.1 2 2.6.7 2.9.1.3.3.1 4.3 1.2h.2l4-.3h.5v-.5l-.3-3.6 2.3.3h.3l.2-.3 2-3.3 2.3.5.3.1.2-.2 1.8-2 .3-.3-.3-.3-1.8-1.8-.1-.1h-.1l-3.7-1.1-2.5-2.9 1.4-.4 2.1 3.2.1.2h.2l4.3.9.6.1v-.6l.1-4.9v-.1l-.1-.1-1.4-2.4-.1-.2h-.3l-5.1-.3h-.2l-.1.1-2.5 1.8-3.9-.6-.5-.1-.1.5-.3 2.7v.2l.2.2 2.1 2.2-.7.8L544 84l-.2-.1h-.2l-4.6.4h-.4v.4l-.3 3.7v.1l.3 3.7zm-111.9 13.3l.3-.2 1.4-.8.4-.2-.2-.4-1-2-.2-.5-.5.3-2.3 1.5-.6.4.6.4 1.9 1.4.2.1zm-3.1.9l-.3.6-.9 1.8.2.2.9 1 .3.4.4-.3 1.1-1.1.4-.3-.3-.4-1.3-1.4-.5-.5zM534 94.9v.1l.1.1 2.6 3.1.2.3.3-.1 1.6-.7.5-.2-.3-.5-2-3.6-.1-.1-.1-.1-3-1.8-1-.6.2 1.1 1 3zM420.9 55.2l.8.1-.2-.8-1.1-3.7-.1-.3h-.4l-3.4.1h-.4v.4l-.3 2.7-.1.5.5.1 4.7.9zm-53.3-12.5l-.3-.3-1.5-1.4-.4-.4-.4.4-1.5 1.9-.4.5.5.3 1.8.9.3.2.2-.3 1.2-1.4.5-.4zM475.3 129l-.1.4-1.2 2.9-.1.3.3.2 3 2.4.4.3.3-.5 1.4-2.2v-.2l.5-1.8.1-.3-.3-.2-1.7-1-.1-.1h-.1l-2-.3-.4.1zm-40.5-38.4l.1.2 1.1 3.8.2.7.6-.5 4.4-3.6 4.6-.3h.2l2.7-2.7.1-.1v-.2l.3-5.9v-.2l-.1-.1-2.7-3.4-.3-.4-.4.4-1.9 1.9-.7-.8.2-3.3v-.9l-.8.4-3.9 2.1-.2.1v.3l-.6 7.2-2.7 5-.2.3zm17.2.3l.1.3.3.1 3.6.8.7.2-.1-.7-.2-1.4V90l-.2-.1-3.6-2.2-.5-.3-.2.6-.2.8v.2l.3 1.9zM340.5 40.6l-.1.5-.4 1.4-.1.4.3.2 1.5.9.7.4v-.8l.1-1.9v-.4l-.4-.1-1.2-.4-.4-.2zm445.7 244l-.2.4-1 2-.1.2.1.2 1 1.7.2.3.4-.1 1.5-.5.3-.1v-.3l.3-2.8.1-.4-.4-.1-1.9-.4-.3-.1zm-5.2-44l-.3-.3-.3.3-.9.8-.1.1v.1l-.3 1.5-.1.4.4.1 2.2.8.3.1.2-.2 1.1-1.3.3-.4-.4-.3-2.1-1.7zm6 35.4l-.1-.2h-.2l-1.2-.2h-.3l-.2.3-1 2-.1.3.2.2 1.6 2.3.3.5.4-.4 1.9-1.8.3-.3-.2-.3-1.4-2.4zm-4.1-22.7v-.3l-.4-6v-.2l-.1-.1-1.7-1.6-.1-.1h-.1l-1.8-.5-.6-.2v.6l-.5 6v.2l.1.1 2.3 3 .2.3.4-.2 2.2-1h.1zm-.9 4.6l-.6-.3-.1.6-.3 2.2v.1l.1.1 1 2.2.2.4.4-.2 2.8-1.3.2-.1.1-.2.4-1.5.1-.4-.4-.2-3.9-1.4zM184.5 116.3l-.1-.1-1-.8-.4-.3-.3.4-.8 1.1-.1.1v.1l-.1 1.1v.2l.2.2 1 1.1.3.3.3-.2 1.4-.9.3-.2-.1-.3-.4-1.6-.2-.2zm288 19.9h-.3l-2.1-.1h-.3l-.2.2-1.2 1.8v.2l-.3 1.1-.1.2.1.2 1 1.2.3.3.4-.2 3.3-2.1.3-.2-.1-.4-.8-2v-.2zm272 9.2l-2-.3-.4-.1-.1.4-1.5 4.6-.1.3.2.2 5.8 6.5.8.8.1-1.1.8-9.3v-.3l-.3-.1-3.3-1.6zm44.7 16.5l-.1-.2h-.2l-4.3-.5h-.2l-4 .9-.7.2.4.6 1.5 2.3.1.2h.2l5.8.9h.2l.1-.1 2.3-1.2.5-.2-.3-.4-1.3-2.5zm-13.4 80.8l-.4.3-2.2 1.4-.3.2.1.3.3 1.5v.2l.2.1 2 1.3.5.3.2-.6 1-2.4.1-.2-.1-.2-1.1-1.8-.3-.4zm13.6 49.4l-.1-.2-.2-.1-2.1-.6-.3-.1-.2.2-1.6 1.6-.2.2.1.3 1.2 3.3.2.4.4-.1 3.6-1 .5-.1-.2-.5-1.1-3.3zm-8.2-52.2l-.1-1-1-13.1-1.4-6v-.1l-.1-.1-4.2-4.2.4-6 2.1-1.7.4-.3-.3-.4-7.3-8.5.1-5.6 3-3.3.2-.2-.1-.2-.8-3.4-.1-.3-.3-.1-6.1-1.8-6.1-10.8.8-.5 1.7 2.4.3.4.4-.2 3.1-2 .5-.3-.5-.4-4.8-4.6-.3-.2-.3.2-2.4 1.3-3.9-2.5-.1-.1v-.1l-1.9-4.6-.1-.3h-5l-.1.4-.4 2.6-2-.2-8.7-17.4.5-5.1 3.2-.7.5-.1-.1-.5-2.3-9.1 4.5 3.6.8.6v-1l.1-12.3 4.2-4.3 6.5-.1h.7l-.3-.7-3.8-9.2-1.8-19.9v-.5L747 73.2v-.3l-.2-.1-3.2-1.8 8.6-6 .3-.2-.1-.3-1.3-4.3-.1-.3h-.3l-17.2-1.4h-.3l-.2.2-2 2.6-4.5.4h-.4l-.1.4-.5 3.2-2.9-.2v-4.3l4-1.3.2-.1.1-.2 1.7-3.5.1-.1v-.1l-.9-9.3v-.3l-.3-.1-1.7-.7-.2-.1-.2.1-1.4.9-.1-2.6v-.7l-.6.2-3.7 1.4-2.4-2.7.8-4 2.8 2.4.3.3.3-.3 1.6-1.3 2.6 2.8.5.6.3-.7 1.7-3.9v-.2l-.4-4.4 2.8-2.3 5.3.5h.2l.2-.1 9.1-6.9.4-.3-.3-.4-1.4-1.6 3.3.5.6.1v-.6l-.1-4.4v-.6l-.6.1-4.6.8-1.3-2.8-.1-.2h-.2l-5.9-1.2 2.1-2.6.3-.4-.5-.5-2.8-2 2.6-1.8.4-.3-.3-.4L733 .3l-.3-.3-.4.2-11.1 6.5-.2.2v.2l-.6 5.2-2.9 3.8-.4.5.6.2 6.4 2.6-2.9 1.3-11.8-3.2-.2-.1-.2.1-14 9.3-20.9 11.3-.1.1-.1.1-5.6 9.1-.1.2v.2l.4 2.3-3.4.9h-.1l-.1.1-5.4 4.8-.3.3.3.4 3.8 4.7.2.3.3-.1 3.2-1 4.6 2.6-.4 4.4-4.3.5h-.1l-.1.1-2.9 1.7-6.4-4-.7-.5v9.1l-6.6 4.9-.1.1-.1.1-2.6 5-.2.4v.2l-1.3 2.5-6.7 3.8-5-4.7-.1-.1h-.2l-5.2-.5h-.2l-.1.1L621 91h-.1l-.1.1-5.1 6.3-.1.1v.1l-1.8 6.1-3 .9-4-2-.1-.1h-.1l-4 .4h-.2l-.1.2-1.8 2.3-1.4-1.2-.4-.3-.3.3-1.4 1.5-1.4-1.3 3.4-3.4-1.1-.1-7-.5h-.2l-.2.1-4 3.5-.2.2.1.3 2.1 7.3-3 2.9v-5.2h-3.4l-.1.1-2.1 1.9-.4-1.9 3.8-3.5 1-.9-1.4.1-4.3.3h-.2l-12.8 6.5-.5.3.4.5 2.2 2.7-3.3 3.2-.3.3.2.3 1.4 2.6.2.4.4-.2 2-1 .2 3.1v.2l.1.1 2.6 3.1-4.1 1h-.2l-.1.1-1.4 2-.2.2.1.3 1.1 2.6-3.2.5-5.1-1.5-.5-.1-.1.5-1.4 5.4-8.4-1.5-.6-.1v13.1l-5.6-.9-9.1-8.2 3-2.1.4-.3-.3-.4-5.9-8.7-.1-.1-.1-.1-3.8-1.8-.2-.1-.2.1-5.6 1.9-6.2-2.4-.6-.2-.1.6-.9 9.6-11.1 4.7-3.9-2.7.6-2 .2-.6h-.6l-11.9-.1h-.2l-.1.2-3.1 4.2-.1.1v.1l-.2.8-.4-2v-.8l-2.2-2-.4-.3-.3.3-2.6 2.7-3.3 1.6-.2.1-.2.1-.3.1-3.4 1.7-3.8 2.9-5.3 1.5-.2.1-.1.2-1.1 2 .1-3.1 10.7-11.1v-.1l6-10.8v-.2l2.7-9.7.1-.3-.2-.2-8.4-9.5-.1-.2h-.2l-7.8-.3h-.3l-.2.2-2.6 3.7-2.1.4 2.1-5.9.2-.6-.6-.1-5.6-.7 1.6-2.3.3-.4-.3-.3-3.9-3.3-.2-.2-.3.1L445 97l-.1.1-.1.1-5.6 8.4-.1.2.1.2 1.2 4.4-5.4.4h-.5v.5l.1 1.6v.1l.1.1 1.5 2.3-3.1-.7-.2-.1-.2.2-2 1.9-4.4-.8-.6-1.9-.1-.4h-.4l-7 .1h-.5v.5l.1 3.6-8.1 1.1h-.1l-.1.1-5.6 4.5-4.3.1h-.2l-.1.1-3.3 2.9-.1.1v.2l-1.4 5.9v.2l.1.2 2.4 4.4-3.5.9-11-1.8-6.4-.1h-.3l-.1.3-2 3.5-.1.1v.1l-.3 9.1v.2l.2.1 4 3.8 1.6 3.8h-4.6l-4.7-8.7-.1-.3h-.3l-3.5.2h-.5l-2.6.2h-.3l-.1.3-1.1 3.9-3.7-3.4-.6-.5-.2.7-1.2 4-.1.3.2.2 4.5 4.8.2 3-7.3-6.5-.2-4.3 3.4-4.2.1-.1v-.2l.5-6.9.1-.8-.7.3-1.4.7-.2.1-.1.2-1.7 4.6-2.4 2.2-2.6.8h-.2l-.1.1-2.6 3.9-.1.1v.2l.1 10.2-6.3 9.9-.1.1v.2l.4 6.1v.5h6.8l5.1 6.1v5.8l-3.7 4.4-.2.2.1.3 1 2.1.1.1.1.1 1.9 1.1-3.9.9-1.4-5.2 4.1-7.1.1-.2-.1-.2-1.8-5.5-.1-.3h-.3l-6.4-.9h-.2l-.2.2-3.5 3.4-.1.1v.2l-.4 7.5-5.7 5.8-5.2 1.9h-.1l-.1.1-3.4 3.6-11.7-7.2v-2.6l7.5 3.5.2.1.2-.1 4.3-1.7 6.9-4.4.1-.1.1-.1 4.7-9.4.1-.1v-.1l-.8-5L341 158l.9-3.3v-.2l-.9-4 5-4.8.1-.1v-.2l1-6.9v-.2l-.1-.2-3.5-4.7 3.3-.4.5-.1-.1-.5-.6-5v-.4h-.4l-4.1-.3h-.5v.5l-.3 3.7v.2l.5 1.2-1.6-.6-.3-.1-.2.2-3.9 3v.1l-4.7 6-3.5 3.4-5.4 1.3h-.1l-.1.1-2.9 2.7-.3.3.3.3 2.7 3.5-2.9 5.2-4.1 1.2-.3.1v.3l-.1 2v.2l.1.2 3.6 3.7-1.2 3.4-.1.1v.2l.7 2.3v.2l1.2 1.7-4.1 3.8-1.2-1.9-1.3-5.5v-.2l-5.1-8.2-.1-.2-.1-.2-2.8-4.9-6.5-7-.1-.2h-5.6l-.1.4-.7 2.9-.1 4-3.1 1.9-1.8-.4-.3-.1-.2.3-1 1.5-1.6-1.3 2.4-2.2.2-.1v-3.6h-.5l-9.1-.1-4.4-3.3-.1-.1h-.2l-6.8.6-1.8-2.5 3.3-.3h.3l.1-.2 2.2-4.3.3-.6-.6-.1-5.6-1.3-.3-.1-.2.2-2.2 2.6-1-1.7-.1-.2-.2-.1-14.4-3.5-.3-.1-1.7 1.7-1.7-1.6-.3-.2-.3.2-7.3 4.3-3.4-3.3 1.1-3.1.1-.2-.1-.2-1-2.9 4-1.3 4.1 2.9.4.3.3-.4 2.1-3.4.1-.1v-.1l-.1-6.1v-.2l-.1-.1-5.7-6.3-.6-.6-.2.8-1.6 6-7.7 5-.2.1v.2l-.6 3.8-3.4 3.1-.2.2-.2.2-.2.2-3.5 3.1-1.2-2.3 2-.4.6-.1-.3-.6-3.3-6.1-.2-.3-.3.1-4.8.8-4.9-1.7h-.2l-6.1.9h-.3l-.1.3-3.2 8-1.9-1.1-3.4-8 .5-6.3v-.6l-.6.1-5.7.7h-.3l-.1.3-1.6 5.5-.1.2.2.2 2.2 2.7-1.9 2.5-3.2-1.8-.6-4.2v-.5l-.3-2.1.4-1.7v-.2l-.1-.2-1.5-2.1 1.4-2.6 4.7-5.9 3.9-1.3.2-.1.1-.2 2.3-4v-.2l.9-5.9v-.2l.1-.6.9-5.5.8 1.1-.6 4.5v.1l.1.1 1.9 4.1.5 6.8v.1l.1.1 2.7 4.1.6 4.2v.2l.2.1 10.2 6.1.2.1h.2l6.3-1.2h.2l.1-.2 4.7-6.4.1-.1v-.1l1.3-6.8v-.2l-2.1-8 .3-11.7v-.2l-1.3-4.3v-.2l-3.2-5.1-.5-3.6.8-.5 1.7 2.4.3.4.4-.3 2-1.3.4-.2-.2-.4-1.8-3.5-.1-.1-.1-.1-6.9-4.7-.1-.1h-.1l-9.9-.9h-.2l-.1.1-1.9 1.4-4.9 2.9-.3.1.1 4.1-3.2 5.1-6.4.1h-.2l-.1.2-2.1 2.7-.2.2-.9.3-.1.1-5.4 6.8-2.6-.1h-.2l-.1.1-3.5 2.4-2.5-.1h-.3l-.1.3-1 2.6-1.1 2.1-2.3 1.7.2.4 1 1.9-1 1-4.6-.7-.4-.1-.1.4-1.3 4.6-.9 6.6-2.5 1-12.7-1.7-5.8.2h-.4l-4.3.2h-.2l-5.4 2-.3.1v.3l-.3 4.3v.2l.4 1.7-.8.7-.9-2.4-.1-.3h-.3l-1.9-.1-3.1-3-.3-.3-.3.2-3.9 2.5-2.6.3-.5.1-2.5.3h-.1l-.1.1-4 3.1h-.1v.1l-2.2 3-4.3-.2h-.3l-.2.3-2.6 4.4-3 .4h-.4v.4l-.1 3.3-4.6 3-.2.2v.3l.3 4.6v.2l.1.1 1.7 2.2-2 2.4-.2.2.1.2.5 2.2-.3.2.3.1 2.8.7.6 2.8-.9 1.6-.1.2-.2.3-.1.2-.4.8-4.2 2.4-.1.1-.1.1-2.2 3.5-2.3 4.8v.2l-.3 3.9v.2l.6 2.1-1.5 1.9-.1.1v.2l-.1 1.4-3.4-.3-2.3-2.2.2-2.1v-.4l-.4-.1-2.5-.5-.4-.1-.2.4-1.4 3.4-5.1 4.4-.2-.1v.3l.4 2.9.1.4h.4l2.6-.1 1.8 1.5.7 3.5.1.4h.4l2.3-.3 2.3.4v1.3l-3.3 4.4-.2.3h-.3l-2.2.9-.2.1-.1.2-.8 1.8-1.3.3-.3.1v.4l-.1 2.6v.3l.3.1 1.9 1.1-.5 4.6v.2l-.1.1-1.9 2.3-.9 1.4-.1.2v.2l.4 2v.2l.2.1 1.6.8-.2 2.7v.3l.3.2 4.7 3 .1 5.5v.1l.1.1 3.9 7.4.1.1.2.3 1 2-.2 4.4v1.5l-3.6-.1h-.3l-.1.2-1.4 2.2-1.9.2h-.2l-.1.2-2.4 4.3-3.7 1.4-2.8-4.1-.1-.2h-.2l-7-.9h-.2l-.2.2-3.3 3.4-.4.4.5.3 6.4 3.8-1.2.8-3.4-2.1-.3-.2-.3.2-2 1.6v-.2l-.1-.1-4.8-4.3-.7-.6-.1 1-.6 5.6-2-1-.1-.1h-.1l-5 .3h-.2l-.1.2-1.4 1.8-3.3-5.5-.3-.5-.4.4-2.9 2.6-.2.2v.2l.3 4.4-1.3 1.5-.2.2.1.3.7 2.1.1.1 1.9 1.4-.1 3v.2l1.2 5.1-.4 4.8-.9 7.9v.2l.1.2 1 1.4.2.3.4-.2 1.7-.7 1.2 1.9.2.3.1.1 3.1 5.3v3.3l.1.1 3.2 3.5.4.4 2.6 2.9.1 4v.1l.1.1.8 1.3.1.1v.2l.2 4.5v.3l.3.1 5 2.4v1.1l.1 1v.2l.2.1 1.4 1 .1.1v.1l.9 2.5.4 1.9-1.4 1.4-.2.2v.2l.3 3.9v.1l.1.1 3.6 5.1-.3 5.3-.6 2.6-.1.2.2.2 3.3 4 .2.3.3-.1 1.6-.7.2-.1.1-.1.7-1.2 1.5.8 2.1.7.2.1.2-.1 2.5-1.6.2-.1v-7.1l1.7-9.6 6.2-5.9.1-.1v-.2l.5-6.3v-.2l-.6-2.4 2.8-2.1.1-.1h.1l4.1.1h.2l3.9-1.8h.1l.1.1 4.1 1.5h.2l11-.3h.6l-.1-.6-.8-3.8 2.3-.4.3-.1.1-.3 2.1-11.7v-.2l-.1-.2-1.8-2.5-.1-.1h-.2l-2.3-.5.3-1.6 3.3-3 .3-.3-.3-.4-2.7-3.7 1-.5 1.9-.8.2-.1.2-.1 4.4-1.5.3-.1.1-.3.6-3.2 3.5-2 4-1 1.4-.4 2.3 2.2-.2 2.3-.6 2-.1.2.1.2 1.4 2.6.2.4.4-.2 2.9-1.3.2-.1.1-.2 1.4-2.8 1.5-1.6 3.8.7h.2l.2-.1 2.1-1.7 1.2-.1 1 .8.1.1h.2l4-.3 3-.8 1.7-.4-.1 2.8v.2l1.6 3.8.2.4.4-.1 1.8-.4h.1l.1-.1 1.1-1 2.2 1-.1 1.4-.7 1.6-.1.3.2.2.9 1 .1.1h.1l2.4.8 1 3.4 1 4.4-1.1 2.7-.1.2 1.3 2.5.2.5.5-.3 2.8-1.7.9.3.8 1.7.6 3.3v.2l.2.1 2 1.4.3.2.3-.2 2.2-1.5 2 .1 3.8 1.7-.1 1.6v.1l.1.1.9 1.6.1.2h.2l2.1.4h.3l.2-.2 1.4-1.5 1.5 1.5h.1l2.1 1.3-.5 3.3v.2l.5 2.1v.1l.1.1 2.3 2.6.1.1h.1l2 .7.2.1.2-.1 1.8-1.1 1.2.4 1.1 2.2.1.2.2.1 4.8 1.6.2.1.2-.1 2.1-1.6h.1v-.1l2.1-3 .2-.2-.1-.3-3.7-8.1-.1-.1 1.4-1.8 4.7-.4h.4v-.4l.4-3.3 2-1.1 2.2.1 2.9 2.3.3.3.3-.3 1.8-1.7.3-.3-.2-.3-2.2-3.6-1-3.3 2.2-2.3 1.8-.5 3.2 3.4.1.1h.2l7 .4h.4l7.3 1.7 4.1 2.6.3.2.3-.2 2.2-1.8 3.4 1.8h.2l12.3 2.4h.2l.1-.1 4.5-2 .2-.1h.1l3.4-.1 2.9 4.8.1.2h.2l2.4.4h.3l.2.1 1.6.5.1 2.8-1 1.2-.2.2.1.3.7 2.1-2.4 2.8-.2.2.1.2.5 2.2.1.3.3.1 5.3 1.2.2 2.7v.4h.4l2.7.1 1.9.5 1.7 1.9-2.6 2.2-.2.1v3l.6-.2 2.8-.9 2.4 1.3.2.1h.2l2.3-.5h.1l.1-.1 1.9-1.6 5.5-1h.4l5.7.1-2 2.1-.3.3.2.3 5.7 9.3.1.1v.2l6.3 30.3.1.5.5-.1 3.4-.5h.2l.1-.2 2.1-3.1 1.6.7.6 3.3v.2l.2.1 7.2 3.9.2.1.2-.1 5.4-2 2.7 1.2 2.1 4.3.1.2v.2l.5 4.5v.3l.2.1 3.9 2.2.1 4.2v.4l.4.1 4 .9 1.6 2 .3.3.4-.2 4.2-2.2.8 2.7v.2l3 4.4.1.2h.2l4.7.5h.3l.1-.3 1.3-2.9 6-.2h.2l.1-.1 4.2-3.1.2-.1.2-.1 16.7-6.3 5.7-.4.9 1.3.1.2h.2l8.7 1.9.6 3.7v.2l.2.1 3.4 1.7h.2l9.5 1 3.6.5 1.8 1.7.2.2.3-.1 3-1h.1l.1-.1 2.7-2.3.1-.1v-.1l2-4.8.1-.3-.2-.2-3.1-3.8.4-5.5 1.8-.6.3-.1v-.3l.1-2.3 2.3-.1h.4l.8-3.1 10.9 4.4 9.9 2.3 2 7.8.1.2.2.1 7.4 3.9.1.1h.1l5.2-.1h.1l.1-.1 7.3-4.3 5.5 1.8h.2l5.7-.4 1.4 2.5.1.2h.3l3.5.1h.5l1.9.1 2.1 3.9.1.2h.3l17.1 1.6h.2l.1-.1 11.4-6.9 3.5-.1h.3l.1-.3 1.1-3.7 5.4-5 7.4-.4 2.2 2.1.3.3.3-.3 3.1-2.8 13.6 2.2.4.1.1-.4 1.9-5.2 4.6-3.2.3-.2-.1-.4-1.9-4.7 2-12.8 3.4-3.4.2-.2-.1-.3-2.3-6.3-.1-.3h-.3l-4.2-.4 3.1-5.8 6.1-4.2.2-.1.2-.1 8.7-4.5 6.6 2.3h.2l8-1.3 11.8 11.7 14.9 15.4.2.2.3-.1 5.7-2.3 3.5 1.6.2.1.2-.1 2.4-1.2 4.8 1.5h.2l2.7-.3 3.9 6.1v.1h.1l4.2 3.7.2.2.3-.1 8.9-4.3.2-.1.1-.2 1.1-3.6 6.5-7.3 3.4-1.6 3.3 5.4-1.2 4v.2l.1.2 2.1 6.1.1.1v.2l-.5 15.2v.1l.1.1 2.4 4-9.9.8h-.3l-.1.3-3.5 7.7-.1.3.2.2 9.8 10.1.2 3.6.1 1 .7-.7 5.3-5.1 9.2.1h.2l.1-.1 6.8-5.5.1-.1v-.1l4-8.1v-.2l2-22.2 2.7-11.6v-.2l-1.8-13.6v-.4l1.2-15.4v-.2l-1.7-4.8-7.6-15.4v-.1l-2.4-2.9-2.2-10.7v-.1l-1.2-2.8 6.3 3.4 2.4 6.4v.2l3.8 4.8 4.6 7.3 3.3 5.3v.1l.1.1 3.7 2.8 1.1 3.3 1 3 .1.2.2.1 4.5 2.1.6 4.4v.1l.1.1 4.8 6.1.8 1 .1-1.3.4-5.4v-.2l-.6-3.5 3.3-.2h.2l1.2-.6 3.3 1.7 1.3.7-.6-1.3-2.9-6-.1-.3h-4.4l-4.3-1.9-4.9-3.5-3.2-8.2-1.7-5 3.5-2 7.2-.4 1.4-.1-1.2-.8-16.4-11.1-12.8-9.5-5.3-10-.1-.1-.1-.1-7.3-5-3.3-4.2-.2-.3-.3.2-2.3 1-.2.1-.1.2-.5 2.5-.1.3.3.2 4.2 2.9 2.1 3.2-.9 1.2-1.8-.4-.5-.1-.1.5-.7 3-.1.3.3.2 4.1 3.1 3.6 8.3-4.8-2-1.7-2 1.6-3.1.2-.5-.5-.2-4.2-1.7h-.1l-8.7-1.6h-.2l-.1.1-6.8 3.5-.2.1-.1.2-2.1 9.3-2.2-2.9-.4-.5-.4.5-2.7 3.5-2.4-7.1-.2-.6-.5.3-5.6 3.4-4.2-.7.2-4.1 6.2-15.6v-.2l1.6-15.6 1.8-7.5v-.2l-1.5-6.1 2-5.5v-.2l-.9-5.8 12.8-12.6 3.9.7.4.1.1-.4.4-1.6.1-.2-.1-.2-.9-1.4 1.4-.9.1-.1.3-.2 3.5-2.3 2.3-1.9 3.2-.8.4-.1-.1-.4-1-6.2 5.3-1.7h.1l.1-.1 4.3-3.8 2.9-.1-2.4 3.5-.3.4.3.3 2.9 2.5.4.3.3-.4 4.2-4.7.1-.1v-.1l1-7.2 3.5-1.3.1-.1.1-.1 3-3.9.3-.4-.4-.3-3.1-2.3-.4-.3-.3.4-2.4 3-2.4-2.2-.8-13.3v-.2l-2.4-7.9.8-5.6 4.6-6.6 2.5-.1h.3l.1-.3 1-3 5.1 6.9.2.2h.3l3.9-.7.4-.1v-.4l.3-2.9v-.2l-.9-5.9-1-4.1 2.4-2.3.3-.3-.3-.4-6.5-7.8 1.4-4.7 4.8-1.7-2.6 3.9-.1.2v.2l.8 3.9v.2l.2.1 5.1 3.5.1.1h.1l1.9.1-.1 3.2v.4l.4.1 1.8.4-2 10v.2l.1.2 2.3 3.8.8 12 1.8 7.8 2.4 7.6-2.7 2.9-.2.2.1.3.8 2.8-1.4 1.9-.2.3.3.3 3.9 4.6.6 7.3v.2l.1.1 5.6 6.3.3.3 6.3 7.1h.1l36 24.1 1.1.7zM140.4 125.1l-1.4 1.6-.1.1v.2l.2 3.2-.4 2.7-2 1.5-.1.1v.1l-.6 1.5-4 .1-1.6-2.3-.1-.2h-4l-.9-1.1 6.5-7.9.1-.1v-.2l-.2-4h.1l3.1-.6 4 .6 1.5 2.2-.1 2.5zm20.9 9.5l-2.2 2.2-3.9 4.4-.1.1v.1l-1 3.7-.1.2-1.7 1.6-3.4-.2-1.3-1.4h1.3l.1-.1 1.8-1.4.1.2.1-.4.1-.1-.1-.1.1-.3.5-1.3v-.2l-.3-4 1.4-2.8 5.2-5.6 2.9.7.9 1.6-.4 3.1zM499.4 354l-1.8 1.7-.1.1v.1l-.6 1.1-.1.2.1.2.6 2-.7 1.8-1.8.5-.3.1v.4l-.1 2.2-2.5 4-3.7 1.1h-.2l-.1.1-2.4 3.3-2.7-.2h-.4l-.1.4-.8 4.2-2.1 2.3-6.8 3h-4.4l-.8-1.7 1.8-1.1 2.7-.4h.1l.1-.1 5.5-3.8.1-.1.1-.1 2-3 4.1-3.7.1-.1v-.1l.9-2.7 2.4-4.1 2.9-4.5v-.1l2.5-6.9.2-.6 1.5-4.4.4-1.2.3-.8 1.1-6.6 1.6-2.9 1.9.2.4 2.3-1.1 5.9v.2l.4 5.8v.1l.9 3.1-1.1 2.8zm287.1-46.1v-.1l-.1-.1-1.6-2.5-.3-.5-.4.4-1.8 1.8-.1.1v.2l.1 3.8.1 4 .1 1.8v.5h2.7l.1-.3 1.6-4.5v-.2l-.4-4.4zm-4.7 35.3v-.1l-.1-.1-1.1-1.5-.3-.5-.4.4-1 1-.1.1v2.1l.6 1.5.2.4.4-.1 1.9-.7.4-.1-.1-.4-.4-2zm-8-3.4l-.2-.1-.2.1-1.9.9h-.1l-1.1.8-.3.2.1.3.9 2.9-.3 3.7v.2l.9 2.6.2.5.5-.2.9-.4.3-.1v-.3l.4-6.6 1.1-1.2.1-.1v-.1l.2-1.8v-.3l-.3-.2-1.2-.8zm6.7-14.5l1.4-2.2.1-.2-.1-.2-.6-2.5-.1-.4h-.4l-1.9-.1h-.6v.6l.2 1.7-1.1 1-2.3 2.4-.1.1v.2l.2 5.8.7 4.7v.2l.2.1.9.4.6.3.1-.7.3-2.7.5-3.6.2-2.7 1.8-2.2zM355.4 135.4l-.3.1-1.5.5-.4.1.1.5.5 1.9.1.3h.3l1.8.2h.4l.1-.4.3-1.2.1-.3-.2-.2-1.2-1.3-.1-.2zm-4.6-90.7l-.1.2-1.1 1.6-.2.3.3.3 1.6 1.5.3.3.3-.3 1.7-1.4-.4.6-.3.4.4.3 1.2 1 .2.2.3-.2 2.1-1.1.2-.1.1-.2.6-2.5.1-.5-.5-.1-1.6-.4-.3-.1-.2.3-1.1 1.5-.1-.1-1.1-1.6-.2-.3-.3.1-1.6.4-.3-.1zm445.8 112.6l-1.7-.4h-.1l-.1.1-4.3 1.6-.7.3.5.5 2 2 .3.3.3-.3 4-3.2.8-.6-1-.3zm-446-119.1l-.5.8-.6 1-.1.2v.2l.4 1.7.2.7.6-.4 1.1-.8.3-.2-.2-.4-.9-1.9-.3-.9zm7.4 14.7l.2-.3-.2-.3-1-1.7-.4-.6-.4.6-1.1 1.4-.2.3.2.3 1.1 1.6.4.6.4-.5 1-1.4zm2.2-16.7v.2l.2.1 2 1.3.4.3.3-.4 1.2-1.8.2-.2-.1-.3-1.1-2.2-.2-.4-.4.2-2.4 1.2-.3.2.1.4.1 1.4zm-4.7 5.4l.2.1 3.8 1.3.5.2.1-.6.5-2.9v-.3l-.2-.2-3.8-3.4-.3-.3-.3.2-3 2.1-.4.3.4.4 2.5 3.1zm-6.5-8.8l.3.5.4-.4 1.6-1.6-.4-.3-2-1.8-.5-.5-.3.6-.5 1.2-.1.3.2.2 1.3 1.8zm16.4.8l.1.1 1 .9.3.3.3-.2 1.3-1 .4-.3-.4-.4-1.9-1.8-.3-.3-.3.3-1 .8-.3.3.2.4.6.9zm-86.8 88.1l.1.9.7-.5 1.7-1.2.2-.1v-3.4l-.4-.1-2-.5-.6-.1v.7l.3 4.3zm57.7-92.1v.2l.1.1 1.8 1.4.1.1h.2l2.4-.2 1.5 1.2.4.3-2 .3h-.2l-1.3.5-2.7-.8-.6-.2-.1.6-.2 2.1v.2l.2.2 1.9 1.9 1.9 2.4.5.6.4-.6.6-1.1.1-.2v-.2l-.4-1.9 2-.5 3.2 1.1.3.1.2-.2 2.1-2.1.3-.3-.3-.3-1.9-2.2-.1-.1h-.1l-1.6-.6-.3-.1-.2.2-1.6 1.2h-.1l.3-.4 1-1.2.3-.4-.3-.3-2-1.8-.2-.2-.3.1-1.6.5-3.7-2.4-1-.7.3 1.2.7 2.5zM48.9 123.8l.2.5.5-.2 5.5-2.9.2-.1v-.3l.5-10.5v-.2l-.1-.1-2.6-4.1-.6-.9-.3 1.1-1 4.1-1.9-1.2-2.1-6-.2-.6-.5.3-2.5 1.6-3.4-.2-.8-.1.3.7 8.8 19.1zm202.7 8.7l.1.2h.2l5.3.1h.4l.1-.4.6-2v-.2l-.3-3v-.2l-.1-.1-2.8-3-.2-.2-.3.1-4 1.4-.2.1-.1.2-1 3.5-.1.2.1.2 2.3 3.1zm96.5-92.9l-.2-.5-.5.2-2.7 1.4-.5.2.3.4 1.7 2.9.3.5.4-.4 2-1.9.2-.2-.1-.3-.9-2.3zm-66.2 78l.1 4-2.6 2.6-.2.2.1.3 2.1 4.7.1.2h.3l2 .3.1 1.7v.4l.4.1 2.7.6 1.8.9.6.3.1-.7 1.2-11.6.9-4.3 3.6-3.9 4.5-1.5.2-.1.1-.1 1.8-2.6.1-.2-.1-.2-.6-1.9 2.2 1.4.1.1h.2l3.1-.3h.3l.7-2.2 1.6.1h.5v-.5l.1-1.6 1.8.7.5.2.1-.6.3-1.4 1.2 1.3.4.4.4-.5 1.4-1.8.1-.1v-.1l.3-2 2 1.4.3.2.3-.3 1.5-1.4 3.3.7.3.1.2-.2 2.8-3.2 22.1-.5h.1l.1-.1 5.3-2.9.2-.1v-.2l.6-4v-.2l-.1-.2-2.3-2.7-.2-.2-.3.1-5.3 1.4-.2.1-.1.2-.8 1.7-8.7-.7-3.8-3.3-.3-.2-.3.2-3.3 1.9-3.3-1.4-.2-.1-.2.1-4.3 2.8h-3.7l-.1.1-1.5 1.2-2.1-2.3-.6-.7-.2.9-1.1 5-2.4.1h-.4l-.1.4-.3 1.8-6.4 2-2.3-1-.3-.1-.2.3-1.5 1.8-.3.3 1.9 1.9-2.2 2-4.1-1.7-.6-.2-.1.6-.5 2.9-2.8-.1h-.5v.5l-.1 2.3-4 2.1-2.6-.9-.2-.1-.2.2-3.1 2.3-.2.1v.2l-.2 3.4v.2l.2.2 2.8 3zm12.1 21.2l-.5.1-3.7.9-.3.1-.1.3-.6 3.5v.2l.1.2 2.3 3.8.2.3h.3l2.9-.3h.4v-.4l.2-4v-.2l-1.1-4-.1-.5zM22.3 249.9l-6.4-8.4 3.8-10.7-3.3-2.7-2.4 1.7-9.4-6.4-1.5 2.4.3 7.4L0 237l1.1 5.8 6.3-.4 6.7 8.4 5 3 .3-.3 2.9-3.6z" fill="#fff"/><path class="st1" d="M631.5 82.6l-.6 1.8 1.6 1.1 1.9-1.1-.7-2.3-2.2.5zm-157.1 49.9l3 2.3 1.4-2.1.4-1.8-1.6-1.1-2-.3-1.2 3zm-5.9 7l1 1.3 3.3-2.1-.7-2-2.1-.1-1.2 1.8-.3 1.1zm74.2-31.1l5 .7.2 2.5-1.9.5-2.3-1.4-1-2.3zM556 100l.8 4.1h2.1l.5-3.6-2.1-1.8-1.3 1.3zm4.6 3.4v4.7l5.1-1.1 4.9-2.6-1.7-3.7-3.2-.4-2.4-.6-1.7 2.7-1 1zm1.6-25.7l1.6 3.3 9.8.2 2.9-5.3-1.9-4.1-2.1 2.3-4-.3-1.1 1.9h-2.2l-.3 2.2-2.7-.2zm-3.8-16.4l-.7 2.4 2 .4.8-2.1-2.1-.7zm-5.3 21.3l2.3 3.5 4.3.9.1-5-1.4-2.4-5.1-.3-2.6 1.9-4.1-.7-.3 2.7 2.4 2.6-1.3 1.5-3.9-3.2-4.6.5-.3 3.7.4 3.8 2.1 2.7.8 2.9 4.3 1.2 3.9-.3-.3-4.2 2.9.4 2.2-3.7 2.6.6 1.8-2-1.8-1.7-3.8-1.1-3.1-3.7 2.5-.6zm-19.3 9.2l.6 3 2.7 3 1.6-.6-2-3.6-2.9-1.8zm113.9-6.5l-1.3 2.6-7.2 4-5.2-5-5.2-.5-7.5 4.9-5 6.2-1.9 6.4-3.4 1.1-4.1-2.1-4.1.4-2.1 2.7-1.8-1.6-1.7 1.9-2.1-2 3-3-7-.5-4.1 3.5 2.2 7.6-4 3.9v-5.9h-2.8l-2.7 2.5-.6-3 4-3.7-4.3.3-12.8 6.5 2.5 3-3.7 3.6 1.5 2.6 2.6-1.3.2 3.7 3.2 3.7-4.9 1.2-1.4 1.9 1.3 3.2-3.9.6-5.2-1.5-1.6 5.8-8.9-1.5v13l-6.2-1-9.7-8.8 3.5-2.5-5.8-8.7-3.8-1.8-5.8 1.9-6.4-2.5-.9 10L501 142l-4.4-3 .6-2.3-11.9-.2-3.1 4.2-.8 2.8-.8-4.1-2.2-1.9-2.6 2.7-3.6 1.8-.2 2.5 1.7 2.2v.1l.8 4.1 5.6 7.9v5.3l2.9 3.4.1.2-.2.1-6.5 5.2-.3 3-.1.1-1.5 2.3-1.2 5.6v.2h-.2l-3.2-.4-5.2 4.2-1.8.9 4.1 6.3h.1v.1l1.4 17.5v.1l-.1.1-3.6 4 2.4 1.8.1.1v.1l-1 4.7 2.1 2.3h.1v3.4l2.4 1.7.2.1-.1.2-1.2 3.2-3.7 4.5-.4 3.3h6.2l2.7 2.1 2.8-1.9.2-.1.1.2 1.6 2 .2.1 2 3.2.2.2-.2.1-2.4 1.5v2.8l2.6.2 2.2-1.5.2-.2.1.3 2.7 5.1.1.1v.1l-.2 6.1 3.4 2 .2.1-.1.1-1.5 6.5 1.9 4.3 4.4 1.3.3.1-.1.2-3.4 7.9-.7 9.7 3.4 3.6 3.7-2.8h.1l5.5-.2 2-3.5.1-.3.2.2 3 3 3.9-4.5 6-13 .1-.1.1-.1 4-.6h.2l7.9 3.1.1.1v.1l1.7 5.1 4.7-2.1.1-.1.1.1 3 2v.1h.1l5.3 12 6.8 12.8 4.4-2.8v-.1l4.5-1.8h.1l.2.1 3.4 2.8 1.9-1.7.1-.1.2.1 2.7 2.6 2.6-2.6v-.1h.2l6.2.3h.2l3.9 3.1 7.8-2.9h.1l.1.1 2.6 2.1 10.7-4.9h.1l3.1.7 3.3-1.3-.4-2.5v-.2h.1l8.3-4.3-2.1-5.8v-.2l.1-.1 2.7-3-1.1-2.8-5.3-3.5-.2-.1.1-.2 2.8-5.3-5.1-3.6-.3-.2.2-.2 2.4-2.8v-12h.2l10.1-3.9.4-4.5v-.3h.2l6-.4 1.4-3.7-.2-3.8v-.2l.1-.1 2.9-1.3-2.2-7.7-4-2.9-.1-.1v-.1l2.7-9.4-3.7-9.8-.1-.1.1-.1 2.1-2.7.1-.1h.1l7.2 2.5 4.5-1 1.6-2.8.1-.1h.1l5.4-.8.9-3.5-8.9-18.6h-.1v-.1l1-4.6.1-.1 6-4.2-2.3-4.4-.1-.2.1-.1 5.9-5.5h.1l5.2-.6 3-3.3.5-5.8-3.4-3v-.1l-.1-.1-.1-3.7-2.2-3.2-.1-.2.2-.1 2.5-2.4-2.7-3.3-.2-.2.2-.1 6.7-6.2v-.1h.1l3-1.2 2.2-3.3-4.2-8.8h-5.4l-4.2-1.9h-.1v-.1l-2.2-5.6v-.2l.1-.1 8.4-9.9v-4.9l-11.1-8.3zm13.2-65.1l5.6 6.7 1.3-1.2 1.5-7.7 1.9-3.6-2.1-2.8-5.1.4-3.1 4.6v3.6z"/><path class="st1" d="M747.8 87.4l-1.3-14.2-3.9-2.2 9.3-6.4-1.3-4.3-17.3-1.4-2 2.7-4.7.4-.6 3.7-3.8-.3v-5.1l4.4-1.4 1.7-3.5-1-9.3-1.7-.7-2 1.3-.2-3.4-4 1.6-2.8-3.1 1.1-5.1 3.4 3 1.9-1.6 2.9 3.2 1.7-4-.4-4.7 3.1-2.6 5.5.6 9.2-7-2.3-2.6 4.6.7-.1-4.5-5 1-1.4-3.2-6.7-1.3 2.6-3.2-3.4-2.5 3.2-2.2-3.9-5.1-11.1 6.5-.7 5.3-3 4 7.5 3-4.1 1.8-12-3.3-14 9.3-20.9 11.3-5.6 9.2.6 2.7-3.8 1.1-5.4 4.8 3.8 4.7 3.4-1 5.1 2.8-.5 5.1-4.7.5-3.2 1.9-6.6-4.2v8.5l-6.8 5.1-2.6 5 11.2 8.5.1.1v5.3l-8.5 9.9 2.1 5.4 4.1 1.8h5.5l.1.1 2.1 4.5 3.5.5h.1l.1.1 2.2 4 4.8-2.3h.1l4.4 1.4 3.4-3h.1l5.2-.4 3.9-4-.7-3.9-.1-.2.2-.1 3.9-1.2 1.1-3.7v-.2h.2l3.3-.3 1-3.1.1-.2h.1l6.1-1.4 1.6-2.9v-.1h.2l9-.5h.2l.1.1 2.1 5.8 6.3-1.9h.1l6.9.2 5.6-16.1.1-.2.2.1 3.4 1.8 4.3-1.3zm42.7 71.7l2.1 2 3.9-3.3-1.7-.4-4.3 1.7zm-17 85.7l.3 1.5 2 1.2.9-2.4-1-1.7-2.2 1.4zm6.2-3l-.3 1.5 2.2.8 1.1-1.3-2.1-1.8-.9.8zm-1.3 3.2l-.5 6 2.3 3.1 2.2-1-.5-6-1.7-1.6-1.8-.5zm3.4 13.4l-.4 2.2 1.1 2.2 2.7-1.2.4-1.5-3.8-1.7zm3.5 17.6l-1 2 1.6 2.3 1.9-1.8-1.2-2.3-1.3-.2zm.2 11.2l1.1 1.8 1.4-.6.4-2.7-1.9-.5-1 2zm1.3 4.5l-1.5 1.7 1.2 3.3 3.6-1-1.2-3.4-2.1-.6zm-2.4 13.7l-1.8 1.8.1 3.8v4l.1 1.9h1.9l1.6-4.6-.3-4.4-1.6-2.5zm-5.5 14.9l1.9.1.6 2.5-1.3 2.2-1.9 2.6-.1 2.8-.6 3.6-.3 2.7-.9-.4-.7-4.7-.1-5.8 2.3-2.5 1.3-1.1-.2-2zm-6.8 31l.9-.4.4-6.8 1.1-1.3.3-1.8-1.3-.8-1.9.9-1 .9.9 2.9-.3 3.9.9 2.5zm7.1-6.8l.6 1.5 1.9-.7-.4-2-1-1.5-1.1 1v1.7zm-36.8-199l-1.5 4.6 5.8 6.5.8-9.3-3.2-1.5-1.9-.3zm38.2 17.1l1.5 2.3 5.8 1 2.3-1.3-1.4-2.4-4.3-.5-3.9.9z"/><path class="st1" d="M675.4 214l3.5-2.3 2.4-1.9 3.2-.8-1-6.7 5.7-1.8 4.5-3.9 4-.1-3 4.3 2.9 2.4 4.2-4.7 1-7.4 3.8-1.4 3-3.9-3.1-2.4-2.8 3.4-2.9-2.7-.7-13.5-2.5-7.9.8-5.9 4.8-6.9 2.7-.2 1.3-3.9 5.6 7.7 4-.6.2-2.9-.9-5.9-1-4.1-3.7-2.1-.1-.1-.1-.1-.7-3.8-2.4-2.2-3.9.3h-.2l-.1-.1-2.3-6.1-3.4-.7-.1-.1-5.4-7.9-3.8 4-.1.1h-.1l-5.1.3-3.4 3.1-.1.1-.2-.1-4.4-1.4-4.8 2.3-.3.1-.1-.2-2.3-4.1-3-.4 1.9 4.1.1.1-.1.2-2.3 3.4-.1.1-3.1 1.3-6.5 6 2.7 3.2.2.2-.2.2-2.6 2.4 2.1 3.1v.1l.2 3.7 3.4 3 .1.1v.1l-.6 6v.2l-3.1 3.4-.1.1h-.1l-5.2.6-5.6 5.2 2.3 4.4.1.2-.2.1-6.1 4.3-.9 4.4 8.9 18.4 4.1-2.8h.2l9.2 3.1h.2v.2l1 5.1v.2l-2.2 4 1.6 3.3 3.7-2.7.1-.1h4.9l.1.2 2.3 4zm7.1 158.3l-.5 15.3 2.8 4.7-10.7.9-3.5 7.7 9.9 10.2.2 3.7 5.5-5.2 9.4.1 6.8-5.4 4.1-8.1 1.9-22.2 2.8-11.6-1.9-13.6-2.7-.8h-.1v-.2l-.7-3.2-4.4-3.2-5 3.7 2.9 3.2 4.8.4.2.1v.2l-1.1 7.4v.2h-.2l-3.4.1.5 4.7v.1l-.1.1-4.8 3.2-.1.1-7.9.5-2 2.6 1.5 3.1.2.3h-.3l-4.1.9z"/><path class="st1" d="M678.2 355.9l3.5 5.7-1.4 4.2 2.2 6 3.6-.8-1.4-2.9-.1-.1.1-.2 2.1-2.8.1-.1h.1l8-.5 4.6-3.1-.5-4.8v-.3h.2l3.5-.1 1-6.9-4.6-.4h-.1l-.1-.1-3.2-3.4-.2-.2.3-.2 5.3-4 .2-.1.1.1 4.7 3.3.1.1v.1l.6 3.2 2.4.7 1.2-15.4-1.7-4.9-7.6-15.4-2.4-3-2.3-10.8-1.5-3.6-.5-.6-5.7-2.3-1.9-2.4 1.7-3.4-4.2-1.7-8.8-1.5-6.7 3.5-2.4 10.3-2.9-3.7-3.2 4.2-2.8-7.9-5.7 3.5-4.8-.8.2-4.6 6.3-15.6 1.6-15.7 1.8-7.6-1.6-6.2 2.1-5.6-.9-6.1 13.2-12.9 4.2.8.3-1.6-1.1-1.8 1.8-1.2-2.3-4h-4.5l-3.8 2.9-.2.1-.2-.2-1.8-3.7-.1-.1.1-.2 2.2-4-1-4.9-9-3-4.1 2.8-1 3.6v.1l-.2.1-5.4.8-1.6 2.7-.1.1h-.1l-4.7 1.1h-.1l-7-2.4-1.9 2.4 3.6 9.7.1.1-.1.1-2.6 9.2 4 2.8.1.1 2.2 8.1.1.2h-.2l-2.9 1.4.2 3.7v.1l-1.5 3.9v.2h-.2l-5.9.4-.4 4.5v.2h-.2l-10.1 3.9v11.8l-.1.1-2.2 2.6 5.1 3.6.1.1-.1.2-2.7 5.3 5.1 3.4h.1v.1l1.3 3.1v.1l-.1.2-2.8 2.9 2 5.6 8.2-4.2.2-.1.1.1 2.7 3 .1.1-.1.1-4 8.7.5 4.2v.2l-.2.1-3 1.7.2 3.4h6.9l.1.2 3 4.6 3.4-.3 5.5-5 .9-3.8v-.2h4.4l1.2-2.5.1-.2h.2l2.9.5h.2v.2l2.7 8.3.1.1-.1.1-1.8 1.8-.1.1h-.1l-6.6 1.1 1.6 3.5.1.2-.1.1-2.7 2.8-.6 3.8v.1h-.1l-3.9 4.6 1.7 2.1.1.1-.1.2-2.7 3.5v4.3l7.1 3.5h.1v.1l5.7 7.9 3.5-3.4.1-.1h.1l7.6.1.1.1h.1l3.3 2.7 10.2-3.4.4-.1-.1.4-1 4.3z"/><path class="st1" d="M649.3 363l3.9 6.2 4.2 3.6 8.8-4.3 1.2-3.7 6.7-7.4 3.6-1.7 1-3.8-9.9 3.3-.1.1-.1-.1-3.5-2.8-7.4-.1-3.7 3.5-4.7 7.2zm-71-23.2l8.8-4.6 6.8 2.4 8.3-1.3 12 11.8 14.8 15.4 5.9-2.3 3.7 1.7 2.6-1.3 4.9 1.5 2.7-.3 4.7-7.2-5.7-7.9-7.1-3.6h-.2v-4.8h.1l2.6-3.5-1.7-2.1-.1-.1.1-.2 4-4.6.7-3.8v-.1l2.6-2.8-1.7-3.7-.1-.3.3-.1 6.9-1.1 1.6-1.6-2.6-8-2.6-.4-1.3 2.5v.1H645l-.8 3.7-.1.1-5.6 5.2h-.2l-3.6.3h-.1l-.1-.2-3.1-4.6h-7v-.2l-.3-3.8v-.2h.2l3-1.8-.5-4.1v-.1h.1l3.9-8.6-2.4-2.7-16.6 8.6.4 2.5.1.2-.2.1-3.6 1.3-.1.1-3.1-.7-10.7 4.9-.2.1-.1-.1-2.6-2.2-7.7 2.9h-.3l-3.9-3.1-6.2-.3-2.6 2.7-.1.1-.2-.1-2.8-2.6-1.8 1.7-.2.1-.2-.1-3.4-2.9-4.4 1.8-4.2 2.7 5.3 3.6.2.1-.1.3-1.6 2.2 2.5 2.4 4.4-2.4.2-.2.2.3 2.1 3.7 3.4-.8h.3v.2l.5 6.8 3.5 1.9.2.2-.1.2-2 2.8 5.6 8.3zM695 295.2l-.2-.5 7.7 4.2 2.5 6.6 3.8 4.8 4.6 7.3 3.2 5.3 3.8 2.9 1.2 3.4 1 3 4.7 2.2.7 4.7 4.8 6.2.4-5.4-.6-4 3.7-.3 1.5-.6 3.5 1.8-2.9-6h-4.1l-4.5-2-5.1-3.6-3.2-8.4-1.9-5.3 4-2.3 7.3-.4-16.5-11-11.6-10.5-5.4-10-7.3-5.1-3.4-4.3-2.3 1-.5 2.5 4.3 3 2.3 3.5-1.3 1.7-2.1-.5-.6 3 4.2 3.1 4.1 9.5-.3-.1.5.6zM70.6 237.5l1.1 2-.2 4.8 3.3 1.8 2.4 1.6 2.3-1.6h.1l3.4.2 3.5-2.2.4-2.7v-.2h.3l3.9.5 2.1-.6.2-.1.1.2 1.6 3.1 3.5 1.3.8-.7.2-3.9-2.3-1.7-.1-.1v-.1l-.1-2.5-1.5-1.4-2.2-1.6-.1-.1v-.1l.3-3.9-4.4-3.4h-.1v-.1l-.4-2.6-1.6-.8-.2-.1v-1.7l-.6-1.2-2.5-.2-.5 1.1v.1h-.1l-1.1.2H82l-.1-.1-.7-.9h-1l-1.7 1.5v2.9l-1 1.4.9.6h.1v1.5l.1.3h-.3l-1.8-.1-.7 1.2.5 2.5v.1l-.1.1-5.6 5.7z"/><path class="st1" d="M62.1 211.1l-1.9 2.3-.9 1.5.4 1.9 1.9.9-.2 3 4.9 3.2.2 5.7 3.9 7.4 5.4-5.5-.5-2.4v-.1l.8-1.5.1-.1h.2l1.6.1v-1l-.9-.7-.2-.1.1-.2 1.1-1.5v-2.7l-3.6-3.7-3.6-.7-.1-.1-2.5-1.7h-.1v-.1l-.7-2.1-1.2-.2-1.3.7-.2.1-.1-.2-2.6-2.2z"/><path class="st1" d="M65.5 198.4l-2.2.9-1 2.1-1.6.4-.1 2.6 2.2 1.3-.5 4.9 2.6 2.3 1.2-.7.1-.1.1.1 1.5.2h.1l.1.2.6 2.2 2.4 1.6 3.6.8h.2l3.5 3.7 1.6-1.5h1.6l.7.9.7-.2.4-.9-1.6-2.2v-.1l-.2-2.1-1.7-.6h-.1v-.1l-.5-1.1v-1.9l-.8-1-.1-.1v-3.9l-5.7-7.4-7.1-.3zm8.1-17.4l-3.6-.3-2.6-2.5.2-2.4-2.4-.5-1.5 3.5-5.2 4.5.4 2.8 2.7-.1 2.1 1.7.8 3.7 2.4-.3 2.7.5v1.9l-3.4 4.4 6.4.3 8.1-5.9-.6-1-.1-.1v-1.5h.1l1-1 1.4-.8-.2-1.1-1.6-.1-.9.6-.1.1h-.2l-1.4-.9H78v-.1l-.9-1.7v-.1l-.1-1.5v-.2l.9-1.4-3.9-.3h-.1l-.3-.2z"/><path class="st1" d="M84.9 158.9l-.6 1-4.3 2.5-2.2 3.5-2.3 4.8-.3 4 .7 2.3-1.7 2.1-.1 1.6v.1l4.1.2 1.7-.7h3.4l1.7-1.6.1-.1h.1l2.4.2h.2v.1l1 3.5.9-.5.1-.1.1.1 1.8.2h.1v.1l.9 1.3 4.7-.5 2.7-1.8 3.1-4.4.2-1.1-2.2-2.6v-.1l-.3-2.3-5.3-1h-.1l-2.5-1.9h-.1l-3.3-6.3-1.1-2.6-1-.5-2 .5h-.6zm-11.8 39.6l5.6 7.4.1.1v3.9l.8 1v2l.5.9 1.7.6 2.6.1.9-1.5 5-4.1.5-4.1-2.1-1.9-.1-.1-1.1-2.4v-.1l.1-4.2-6.6-3.5-7.9 5.9z"/><path class="st1" d="M90.5 209.4l-4.8 3.9-.9 1.6-.1.1h-.1l-2.6-.1.2 1.9 1.5 2.1 2.7.2h.2v.1l.8 1.4v1.6l1.7.8.1.1v.1l.4 2.6 4.3 3.3 2.1-.9.5-1.3-.3-2.1-.6-1.3-.1-.1.1-.1.9-1.6.1-.1 3.6-1.7 2.2-1.9.1-2.4-.5-1.6-2-1.5v-.1l-.7-1.7-1.8-.2-2.9 1.3h-.1l-2.1-.2h-.1v-.1l-1.8-2.1z"/><path class="st1" d="M102.9 217.7v.5l-.1.1-2.2 2h-.1v.1l-3.6 1.6-.8 1.4.5 1.2v.1h.1l.3 2.2v.1l-.6 1.5h-.1l-.1.1-2.1 1-.3 3.7 2.1 1.5h.1l1.5 1.5.1.1.1 2.5 2.2 1.7 3.2-.6 6.4-3.3.8-1.1.1-5.3v-.1l.6-3.6v-.1h.1l2.8-3.3-2.3-2.5-1.3.8h-.1l-1.1.4h-.2l-1.8-1.1-.1-.1-1.6-2.9-2.5-.1zm-14.8-21.6l-.1 4.2 1 2.2 2.2 2.1.1.1v.1l-.5 4.2 1.8 2.2 1.9.1 2.8-1.3h.2l1.8.2.2-1.1v-.1l1.3-1.8 2.6-2.8v-1.9h.1l1.6-1.6-.4-3.2-1.8-1.2h-.1v-.1l-.9-1.7-3.9.2-1 1.2-.1.1-.2-.1-3.5-2.1-.9-.3-4.2 2.4z"/><path class="st1" d="M103.8 204.7l-2.6 2.8-1.3 1.7-.2 1.2.7 1.7 1.9 1.6h.1v.1l.5 1.7h.1v.1l-.1 1.6 2.7.2h.1l.1.1 1.6 2.9 1.6 1 1.1-.3 1.4-1 .2-.1.2.2 2.5 2.7 1.6.6h1.5l5-4.5h.1l2.6-1.9-.6-1.7-1-2.7-5.2-8.7-3.1-.1-1.1 1-.1.1-.2-.1-1.2-.8-1.2-.9-.6.5h-.1v.1l-2.2.5h-.2l-1.2-.6-.8.8-.1.1h-.1l-2.4.1zm-1.8-10.5l.7-.9 1.2-1.7v-4l-1.9-1.1-1.5-2.3v-.1l-.4-2.3-2.5 1.7h-.1l-4.9.5h-.1l-.1-.1-.9-1.3-1.6-.3-1.1.7-.3.1-.1-.3-1-3.6-2.1-.1-1.8 1.7H80l-1.6.7-.9 1.6.1 1.5.8 1.6 1.2.7.9-.7h.1l1.9.1h.2l.1.2.2 1.4v.2l-.1.1-1.5.9-.9.8v1.2l.7 1.1 6.7 3.5 4.2-2.5h.2l1.1.4h.1l3.3 2 .9-1.1v-.1h.1l4.2-.2z"/><path class="st1" d="M100.6 181.5l.4 2.5 1.3 2.2 2 1 .1.1v4.5l-1.3 1.8-.7.9.8 1.7 1.9 1.2h.1v.1l.4 3.5v.1l-.1.1-1.6 1.5v1.5l2.2-.1.9-.8.1-.1h.2l1.3.6 2-.5.7-.6.2-.1.1.1 1.4 1 1.1.7 1-.9v-.1h.1l3.3.1 1.2-1.8.8-2.4-.8-.7-1.4-1.8-.1-.1-1.1-3.6-.1-.1h.1l.8-2.6 2.7-3.1 1.7-1.6.3-1.8-2.1-2.5h-5.1l-5.6-3.6h-.1v-.2l.2-2.1-.7-.3-.6.6h-.1l-4.7.7-.1.4v.1l-3.1 4.5z"/><path class="st1" d="M122.3 186.4l-1.3 1.2-2.7 3-.8 2.4 1.2 3.5 1.4 1.8.8.8.2.1-.1.2-.9 2.5-1.2 1.9 5 8.4 3.5-2.1h.1l4.4-.2 4.9-2.9-1.1-2.8-4.7-6.1-2.4-1.1-1.9-2-.1-.1.1-.2 1.4-1.8.5-2.2-1.1-1.1-2.4 2-.2.1-.1-.1-2.3-2.4v-.2l-.2-2.6z"/><path class="st1" d="M128.7 190.2l.4.3.1.1-.1.1-.6 2.4v.1l-1.3 1.6 1.7 1.8 2.3 1.1h.1l4.9 6.2v.1l1 2.8 1.6-.3 1.1-1.6.1-.1h.1l2.9-.2h.2l1.1 1.1 1.9-1 .5-6.4-2.9-1.6h-.1v-.2l-.1-2.6-1.4-1.2-2.1.7-.1.1-.1-.1-7-3.7-4.2.5z"/><path class="st1" d="M135.9 190.7l4.2 2.2 2.1-.7h.1l.2.1 1.5 1.3v.2l.2 2.6 2.9 1.6h.1v.2l-.5 6.4h8.6l1.1-.7h.1l2.9.1h.1l.1.1.8 2.2 2.3 1v.1l2 2 3.2-3.3h.2l7.7.1.2-4.9v-.1l1.5-1.7-1.7-1.7-4.1 1.1h-.1v-.1l-6.2-3.6h-.1v-.1l-3.8-6.8-5.6-3.4-8.6-.5-2.9 2.1h-.1l-3.4.2-1 1.5v.1l-4 2.4zm-12.9-7.2l3.7-1.7-.5-1.7h-.1v-.1l1.2-6.3v-.2h.2l3.2.3 4.1-4-.6-4.6h-3.9v.2l-.4-.3-4.3-3.9-2.7.2-.1-.1-3.1-2.5h-.1v-.1l-.6-2.3-2.3-1.7-.8.7-.4 2.1-.1.2h-.2l-5.7-.5h-.2l-1.9-1.7-5.6-1.5h-.1l-2.9-2.2h-.1l-1.5-1.6-1.6 1.5-.8 3.7v.1h-.1l-1.6 2.6-.1.1h-.1l-3.9.7 1 2.4 3.3 6.2 2.5 1.8 5.3.9.2.1v.1l.3 2.5 2.2 2.6.1.1-.1.1v.3l4.5-.6.7-.7.1-.1.2.1.9.5h.2l-.1.2-.1 2.1 5.4 3.5 5-.1h.2v.1l2.2 2.5z"/><path class="st1" d="M146.9 184.1l-3.2-3-.1-.1.1-.1 1.2-4.4-2.4-2.9-2 .1h-.1v-.1l-5.3-3.4-4.1 4-.1.1h-.1l-3.1-.3-1.1 6 .6 1.9v.2l-.1.1-4 1.8-.4 1.9.2 3 2.1 2.2 2.4-2 .1-.1.2.1.6.6 4.6-.5h.2l2.3 1.2 4.2-2.5 1-1.6v-.1h.2l3.4-.2 2.7-1.9zm-5.9 93.5l-.1 2.9 1.5 3.8 1.9-.4 1.3-1.2 2.7 1.3-.1 1.9-.8 1.7.9 1 2.6.9 1.1 3.7 1 4.6-1.2 2.8 1.2 2.4 3-1.9 1.3.4.9 2 .7 3.4 1.9 1.4 2.4-1.5 2.2.1 4.2 1.8-.2 2 1 1.5 2.1.4 1.6-1.8 1.9 1.8 2.3 1.5-.5 3.6.5 2.1 2.4 2.6 1.9.7 2-1.2 1.6.5 1.1 2.4 4.9 1.5 2-1.5 2.1-3-3.7-8.1-.3-.2-.1-.1v-.1l-.8-2.4v-.1l.1-.2 2-1.5.5-1.5-1-2.1-5.2-1.6-2.4.6-1.2 3-.1.1h-.2l-3.1-.3h-.1l-.1-.1-2.8-2.8-5.3-1.2h-.1v-.1l-1.2-2.2v-.2l.1-.1 2-2.2-1.3-1.4v-1.5l.1-.2h.1l1.9-.6.2-3.2-2.7.1-1.3.9-.3.2-.1-.4-.4-3.8-.1-.2h.2l1.2-.5.2-2.3-1.3-1.3v-.2l.1-5.3-1.4-2.1-.1-.1v-7.2l-1.4-3.1v-.2l.6-2.8-1.9-2.1v.3l-1 3.2v.1l-.8 1.4v.1h-.1l-5.5 3.1-1.4 2.6h-.1v.1l-3.9 1.2-2 .3-3.9 3.4h-.1l-5.6.5-.2.2zm-27.4-2.3l2.5 2.3-.3 2.7-.7 2 1.5 2.7 2.9-1.3 1.4-2.9 1.7-1.8 4 .7 2.3-1.8 1.5-.1 1.2.9 4-.3 3-.8 2.1-.4.1-.2.1-1.7-.3-1.5-1.9-2.9-.1-.1v-.1l.3-3.4-2.3-2.9v-.1l-.8-3.2-.2-1.9-1.8-.6h-.1l-5.5-3-.1-.1v-.1l-.1-3.1-5.4-.9h-.1l-5.8-3.4-.1-.1v-2l-.8-1.4-2.8-.3h-.1l-.1-.1-4-6.4-5.5 2.8h-.1l-3.1.6-.3 3.9v.2l-.9.8.2 3.1 1.7 2.1 2.4.6h.1l4.4 4.3.1.1v3.4l-2 2.2-.1 2.1 1.6.1 1.8-.7.3-.2v.4l.2 3.5 1.1 1.6 2.5.5.2.1v.2l.2 5.9z"/><path class="st1" d="M136.1 259.2l.2 1.8.8 3.2 2.2 2.8.1.1v.1l-.3 3.5 2 2.8v.1l.2 1.6v1.7l5.4-.5 3.9-3.3v-.1h.1l2-.3 3.7-1.2 1.4-2.5v-.1h.1l5.5-3.1.7-1.3 1-3.2.3-1.5-2.7-4-1.2-1-1.3.8v.1h-.1l-1.1.2h-.1l-.1-.1-2.3-3.2-.7.5-2.8 3-1.7 1h-.2l-2.1-.5-.1-.1-3.2-2.8-2.1-1.6-2 .2-3.4.4-1.3 1.9v.8l1 .6h.2l-.1.2-.3 2.2v.1l-.2.1-1.4.6z"/><path class="st1" d="M128.5 252.2v3l5.4 2.9 2 .7 1.3-.6.3-1.9-1-.5-.1-.1v-1.2l.1-.1 1.4-2 .1-.1h.1l3.4-.5 2.1-.2h.1l.1.1 2.2 1.6 3.2 2.8 2 .5 1.5-.9 2.8-3 .7-.5-2.1-2.6-.1-.2.2-.1.9-1.1-.2-2.2-4.2-.3h-.2v-.1l-2.4-3.4-3-.1h-.2l-.1-.2-1.1-2.7-3.3-4-.4.6-.6 2.9v.1l-.8 1.1-.1.2-.2-.1-5-1.7v5.3l-.1.1-1.1 1.2 1 1.9v.2l-.4 1.3h-.1v.1l-4.1 3.8z"/><path class="st1" d="M117.5 224h-1.6l-1.6-.6-2.8 3.4-.6 3.5-.1 5.4v.1l-.9 1.3h-.1l-.6.3 4 6.4 2.8.3h.1l.1.1.9 1.5v2l5.6 3.2 5.5 1 4-3.9.4-1.1-1-1.9-.1-.1.1-.2 1.2-1.2v-5.3l-2-.2h-.1l-.1-.1-1.3-3-3.2-.5-1 .9-.2.2-.2-.3-1.9-3.2v-.1l-.3-3.6H119v-.2l-1.5-4.1z"/><path class="st1" d="M125.5 217.5l-2.6 1.9-5 4.4 1.5 4h3.5v.2l.3 3.8 1.8 2.9.9-.8h.2l3.4.6h.1l.1.1 1.3 3 1.8.1v-.1l.3.1 5.2 1.8.6-.9.6-3 .1-.1.6-.8 1.1-1.8.1-1.3-1.5-.8h-.1v-.2l-.2-1.5-.9-.5-.5.8v.1h-.2l-3.5.1-.4 1v.2h-.2l-1.8-.3h-.1l-.1-.2-1.9-3.5v-.1l-.5-5.1-4-4.1zm16.4 14.1l-.1 1.4v.1l-1.1 1.7 3.4 4.1h.1v.1l.4 1.1 2.6-.7 3.3-.4.4-2.6v-.1l.1-.1 1.7-.9.1-.1 3.4-.8.4-2.9-1-5-6.5-2.1-3.7 1-.4 3.9v.1l-.1.1-3 2.1z"/><path class="st1" d="M124.1 212.7l.9 2.6.7 1.8 4.2 4.2.1.1v.1l.5 5.1 1.8 3.4 1.5.3.3-1 .1-.1h.2l3.5-.2.5-.8.1-.2.2.1 1.2.7h.2v.1l.2 1.6 1.3.7 2.9-2.1.4-3.9v-.2h.2l3.8-1.1.1-5.6v-.3h.3l3.4-.1 1.8-1.5.2-.1.1.1 3.7 2.3 2.9-4.1.2-.2.2.2 3.4 2.5 2.4-1.1 1.1-1.3-2.1-2.6-4.2-4.3-2.3-1.1h-.1l-.1-.1-.7-2.2h-2.6l-1.1.7h-.1l-8.9-.1-2.1 1.2-.1.1-.2-.1-1.1-1.1-2.7.2-1.2 1.6v.1h-.1l-1.9.4-5 3h-.1l-4.4.2-3.5 2.1z"/><path class="st1" d="M158.4 219.2l-3.7-2.3-1.8 1.4h-.1l-3.3.2-.2 5.4 6.6 2.1.1.1.1.1.9 5.3-.3 2.7 1.8-.7 5.5-.8h.1l3.9 1.2.1.1.1.1 1.2 2 2-1.9-.2-4.3-.9-2.1-2.6-3-6.9-1.2-.1-.1-1.6-1.2-.1-.1v-.1l-.6-2.9z"/><path class="st1" d="M171.4 234.9l-1.9 1.7-.2.2-.2-.2-1.3-2.2-3.8-1.2-5.4.8-1.9.7v.1h-.2l-3.6.9-1.6.9-.3 2.6v.2h-.2l-3.5.5-2.5.7.4 1 3 .1h.1l.1.1 2.4 3.5 4.3.2.2.1v.2l.3 2.5v.1l-.1.1-.8 1 1.9 2.4.2.2 2.3 3.3.9-.2 1.4-.9.1-.1.2.1 1.3 1.2h.1l2.8 4.1.1.1-.1.1-.1.7 2.2 2.5.1.1-.1.1-.6 2.9 1.3 2.9h.6l.9-1.9 1-2.3.1-.2h.2l1.8.1h.1l2.4 1.5.6-.8-.5-2.6-1.7-1.7v-.2l.4-2.7v-.2h.2l4.5.5 3.6-1.1.5-3-1.3-.2h-.1l-.1-.1-.8-1-.2-.2.2-.1 1.9-1.4.1-.6-1.6-.2-.2-.1v-.1l-.3-1.1v-.1l.1-.1.9-1.7-.6-.4-3.2 1.7-.1.1-.1-.1-3.8-.7h-.1v-.1l-1.6-2.6-.1-.1-1-3.1v-7.2z"/><path class="st1" d="M172.4 243.6l.5 1.4 1.5 2.5 3.6.7 3.3-1.7.1-.1.2.1.9.7.2.1-.1.2-1.1 1.8.2.8 1.7.2h.3l-.1.3-.1 1v.1h-.1l-1.8 1.3.6.8 1.4.2h2.3l2.3-2.1.1-5.2v-.3h.2l2.1.2 2.2-2.4 1.3-3.6h.1l2.1-2.3 2.4-6.3-1.2-.9-1.5-1.7-1.9.4h-.1l-.1-.1-2.5-2.4-4-.1v1.4l-.2 1.9-.1.1-2.9 2.4-.1.1-.1-.1-2.3-1-1.7-.2-1.8 6.5v.1l-.2.1-3.8.5-1.8 4.6z"/><path class="st1" d="M188.5 252.2l-2.3 2.2-.1.1h-2.3l-.5 3.1v.1l-.1.1-3.8 1.2h-.1l-4.3-.5-.3 2.3 1.6 1.7h.1v.1l.5 2.8v.1l-.1.1-.7 1.1-.2.2-.2-.1-2.5-1.6-1.6-.1-1 2.2-.9 2.1-.1.1h-.8v6.9l1.5 2v.2l-.1 5.3 1.2 1.4.1.1v.1l-.2 2.5v.1l-.1.1-1.2.4.3 3.3 1.1-.7v-.1h.1l3.1-.1h.2v.2l-.2 3.7v.2h-.2l-1.9.6v1.1l1.3 1.4.2.2-.2.2-2.1 2.2 1.1 1.9 5.2 1.2v.1h.1l2.8 2.8 2.9.3 1.2-2.9.1-.1h.1l2.4-.7.4-2.2.3-2.2v-.2h.2l3.1-.8.3-2.5.1-.1 2.5-4.4h.1v-.1l4.4-2.4.1-.1.1.1 2.2 1.1h1l.8-2.8v-.1h.2l2.1-.7 1.2-1-1.6-1.7-1 .4-1.6.9h-.2l-6.9-2.3h-.1l-1.6-1.3-.1-.1-1.8-4.1v-.2l.8-2.4v-.1l.1-.1 3.3-1.9.1-.1 1.9.2h.1v.1l1.5 1.9v.1l.1 3.2 1.3 1 1.7-.7.1-.1h.1l1.6.2h.1l1 .8h.1l2.4 2.4 1.2-.6.8-1.7-1.5-2h-.1v-.1l-.2-1.6v-.1l1.6-3 .3-2.4-1.2-.1-.1-.1-4.5-1.9v-.1l-2-1.5v-.1l-.7-2.2-1.9.5-.1.1-.1-.2-.9-1.1v-.1l-.3-2-.3-1.2-2-.5-.2-.1v-.1l-.2-2.7-4.8-.2h-.3v-3.8h-2.1zm14.8-41.3l-3.2 1.5h-.2l-9.1-3.5-3.1 3.4-.1.2-.2-.1-1.5-1.2-.1-.1v-5.6l-.7-1.7-.1-.2.1-.1 7.4-8.2-.4-3.5-2.1-2.6-2.9.4-4.1 2.8h-.2l-3.7-.1-.5 1.3 2.6 2.4.2.2-.1.2-3.3 3.3-1.6 1.7-.1 5.1v.2h-.3l-7.8-.1-3.2 3.1 2 2v.1l2.2 2.8.1.2-.1.1-1.2 1.5h-.1l-2.6 1.2h-.1l-.1-.1-3.4-2.4-2.9 4 .7 2.8 1.5 1.2 6.8 1.2.1.1h.1l2.7 3.1h.1l.9 2.2v.1l.1 4.5v.1l.1 7.6.3.9 1.6-4.2.1-.1h.1l3.8-.6 1.8-6.5v-.2h.2l2 .2h.1l2.2 1 2.6-2.2.2-1.8.1-1.6v-.2h.2l4.3.2h.1l2.5 2.4 2-.4h.1l.1.1 1.5 1.7 1.2.9 2-2.2 1.6-2.1-1.8-1.6-.1-.1v-2.8h.1l6.8-2.9-.2-3.6-4.1-5.4zm151-72.6l1.8.2.3-1.2-1.2-1.3-1.5.4.6 1.9zm5.8 9.4l2.1.8 2.2-.4-.9-3.3-2.7 1.5-.7 1.4z"/><path class="st1" d="M365.1 149.3l-2.6.2-1.3 4.7-4.3-3.9-1.2 4 4.6 5 .2 4.3-8.3-7.5-.3-4.7 3.6-4.3.5-6.9-1.5.7-1.7 4.7-2.6 2.3-2.7.8-2.6 3.9.1 10.3-6.4 10.1.4 6.1h6.5l5.4 6.4v6.1l-3.8 4.6 1 2.1 3 1.7-5.6 1.3-1.5-5.9 4.1-7.3-1.8-5.5-6.4-.9-3.5 3.4-.4 7.7-5.9 6-5.3 2-3.7 3.9-12.2-7.6v-3.6l8.2 3.7 4.3-1.7 6.9-4.4 4.7-9.4-.8-5.1 8-18.9.9-3.3-.9-4.3 5.2-4.9 1.1-7-4.1-5.3 4.2-.6-.6-5-4.2-.3-.3 3.7.9 2.2-2.6-1.1-3.9 3-4.7 6.1-3.7 3.5-5.5 1.3-2.8 2.7 2.8 3.8-3.1 5.6-4.3 1.3-.1 2 3.8 3.9-1.4 3.7.7 2.3 1.4 2.1-4.8 4.4-1.6-2.4-1.3-5.7-5.1-8.1-2.9 2.4 1.7 3 .1.2-.1.1-3.5 6.3 1.3 4.6.1.1-.1.1-2.2 3.4-.1.1-3.6 1.2-2.4 2.7v.1h-.1l-9 .4-4.6 3.8-.1.1h-3l-.3 7.6v.2l-3.5 4.9 2.3 4.8 8.6.7h.2l4.1 3.2.1.1v.1l.1 4.2 1.5 1.3 9.9.6h.1l.1.1 3 3.8.1.1v.1l.2 6.3 1.7 2.2.1.1-.2 4.2h6.8l5.9 5.5 8.3 3.6.1.1 3 5 5.4 3.3 5.4.5 4.5-3.3.1-.1.2.1 4 3.8 4.2-.1h.1l.1.1 3.1 4.6 1.7.1h.1v.1l3 3 6.2-7.9.4-5.1v-.1l.1-.1 4.1-5.6-.8-4.6-4.7-3.5-.1-.1v-.2l1.2-6.6-3.1-4.3-.1-.1.1-.1.9-9.2-3.9-5.1-.1-.1.1-.1 1.5-4.7-1.5-3.7-.1-.3h.3l5-1.4 2.1-5.4-1.1-6.4-5.3-1.3v-.1h-.1l-4.8-6.4-.1-.1v-.1l1-3.9v-.1l.1-.1 7.3-3.2.7-2.9-3.1-6.5v-.2l.8-4.3v-.1l.2-.1 3.2-.5-3-6.3v-.1l-.1-.5zM256.4 304.7h3.6l3 5.1 2.5.3.8-2.2h.1v-.1l4.3-4 .6-3 .1-.1 2.6-2.9.1-.1h.1l3.2.7.9-1.3.5-2.4-.9-2.4-2.7-1-.1-.1-.1-.1-.4-1.5v-.1l.1-.1 1.3-1.6.4-4v-.1l4.7-4.5.1-.2.2.2 2.6 2.6.1.1-.1.2-1.4 2 1.8.3.1.1 4.7 3.3 3.5-.5h.2l3.3 1.9 3.3.1 4.4-3-7.9-5.9v-.1h-.1l-3.8-7.5-2.8-6.3-2.2-.5-4.6-1.9h-.1l-2.3-2.2-.7 1.8v.2h-.2l-3.7-.2-.9 1v.1l-2.4 1.2h-.1l-1.8-.4-1.1.9-.1.1h-2.5l-2.9-1.3-1.3 2.4v.1h-.1l-4.2.8-2.6 4.6-.1.1h-.1l-7.4-.2-2 4.2.1 4.2v.1l-.2.1-1.9.5-.7 3.3 1.7 3.9.7 2.6 3.1.9v.1h.1l2.8 2.6.1.1v.1l.1 2.6 4.2 3.7.1.1v.1l.3 2.4z"/><path class="st1" d="M221.5 300.2l7.3 1.7 4.2 2.6 2.5-1.9 3.7 1.9 12.2 2.4 4.5-2v-.2l-.3-2.3-4.2-3.7h-.1v-.1l-.1-2.7-2.7-2.5-3.2-1h-.1l-.1-.2-.7-2.6-1.7-4v-.1l.7-3.3-3.5-1.7-2.6 1.3-.2.1-.1-.2-2.1-2.7-4.5-1.5-5.2 1.5.3 1.5-.1 4.7v.1l-.1.1-7 5.2-.1 2.5 5.2 3.2.2.1-.1.2-2 3.6z"/><path class="st1" d="M192.6 313l1.5-1.9 5-.4.4-3.6 2.3-1.3 2.5.2 3 2.3 1.8-1.7-2.2-3.6-1-3.7 2.4-2.6 2.3-.6 3.4 3.6 7 .5v-.2l2-3.4-5.2-3.1-.1-.1v-.2l.2-2.7v-.1l.1-.1 6.9-5.2.1-4.6-.6-3.2-1.8-1.8-1.1.7h-.1l-1.8-.5h-.1l-7.5-6.4-1.3.3-.3 2.5v.1l-1.6 2.9.2 1.5 1.6 2.1.1.1-.1.1-.9 1.8-.1.1v.1l-1.4.7-.2.1-.1-.1-2.6-2.5-1-.7-1.4-.2-1.8.8-.1.1-.1-.1-1.6-1.2-.1-.1v-3.3l-1.4-1.8-1.6-.1-3.1 1.9-.8 2.3 1.7 3.9 1.6 1.3 6.8 2.2 1.5-.8 1.1-.5.2-.1.1.1 2 2.1.2.2-.3.1-1.4 1.2h-.1l-2.1.7-.8 2.8v.2h-1.6l-2.1-1.1-4.2 2.3-2.5 4.3-.4 2.7v.1l-.2.1-3.1.7-.3 2.1-.3 2.2 5.1 1.5.1.1.1.1 1.1 2.3v.2l-.6 1.6v.1l-2 1.5.7 2.1z"/><path class="st1" d="M244.7 218.4l-1.3 2.2-.9 2.1v.1l-4.2 5.5-6.3 6.2-.1.1-5.3 2.4-.1 2.3 1.7 3.3.1.2-.1.1-2.3 2.6-.4 3.5v.2L224 251l-.1.1h-.1l-5 .2-.7 3.2v.1l-.1.1-2.1 1.3-.2.1-.1-.1-2-2.3-2.8 4.5v.1h-.2l-4.6.4-3.9 4.7.7 2.2 1.8 1.4 4.5 2 1.4.2 1.5-.4h.2l.1.1 7.4 6.4 1.7.4 1.1-.7.1-.1.2.2 2 1.9.1.1v.1l.3 1.4 5.1-1.6h.2l4.6 1.6h.1v.1l2.1 2.6 2.5-1.3h.2l3.7 1.8 1.8-.5-.1-4v-.1l2.1-4.5.1-.1h.1l7.4.2 2.6-4.4-1.9-2.8v-.2l.2-2.7.7-4.9-5-3.3h-.1v-.1l-.9-2.2v-.1l.1-.2 2.8-3.4-.5-3-1-5.3-.1-.1.1-.1 2.4-3.4-.1-3.9-2.8-6.7-4.7-2.8-.1-.1v-.1l-.8-3.2-1.3-1.4z"/><path class="st1" d="M277.2 189.9l-2.8.1-4.1 3.6h-.1l-3.7.2h-.1l-.1-.1-1.2-1.9-6 5.3-.9 3.4v.1h-.1l-6.2 5.6L245 218l1.4 1.5h.1v.1l.7 3.2 4.7 2.8.1.1 2.9 6.8v.1l.1 4.1v.1l-2.4 3.4.9 5.2.6 3.1.1.1-.1.1-2.9 3.4.8 2.1 5.1 3.3h.2l-.1.2-.7 5-.2 2.7 1.8 2.7 4-.8 1.3-2.4.1-.2.2.1 3 1.3h2.2l1.2-.9.1-.1h.1l1.8.4 2.2-1.1.9-1.1.1-.1h.1l3.6.2.8-2 .1-.4.3.3 2.5 2.4 4.6 1.9 2.3.5h.1v.1l2.9 6.4 3.8 7.4 7.9 6 4.4-2.5.5-2.7v-.1l.1-.1 2.7-1.7h.2l3.1.4 2.7-8.8v-.1h.1l3.9-2.9.1-.1h.1l4.1 1.2h.1l5.5 3.7 8.5.2h.1l5.9 4.3 7.1-4 .1-.1.1.1 3.7 2.6 4.1-.5 4.6-2 .8-2.1-5.2-2.9-.1-.1v-6.6l-3.1-3-1.6-.2h-.1l-.1-.1-3.1-4.5-4.1.1h-.1l-.1-.1-4-3.7-4.4 3.2v.1h-.1l-5.6-.6h-.1l-5.5-3.3-.1-.1-3-5-8.2-3.6h-.1l-5.9-5.4h-7l.1-.3.1-4.3-1.7-2.2v-.1l-.3-6.3-3-3.8-9.8-.5h-.1l-.1-.1-1.6-1.4-.1-.1v-.1l-.1-4.1-4-3.1-8.7-.7h-.2v-.1l-2.4-5.1-.1-.1.1-.1 3.6-5 .2-7.6zm-170.1-55.3l-1.2.9-.7 1.8.1 6.2v.2h-.2l-4.5 1.5-.3 2.1v.2h-.2l-1.5.1-.4 1.5v.1l-.7.7 1.6 1.5 2.9 2.1 5.6 1.5.1.1 1.9 1.6 5.4.5.4-2v-.1l.1-.1 1.1-.8.1-.1.1.1 2.6 1.8.1.1v.1l.5 2.3 3 2.4 2.6-.1.1-.1.1.1 4.1 3.6.2-1.8-.7-2.3-1.9-2-.1-.2.1-.1 1.7-2.7-.3-3-1.6-3.2v-.2l.4-2.2-1.5-.2h-.2v-.2l-.4-1.4-2.8-.1h-.1l-.1-.1-.8-1.5v-.2l.7-1.4-.1-1.7-2.2-.7-.6.8-.1.1h-.1l-1.5-.2h-.1l-1.5-1.3-2.4.3h-.1l-.1-.1-1.4-2.4-1.5-.8-2.7 1.4-.2.1-.1-.3-.7-2.2z"/><path class="st1" d="M135.3 169.8l5.2 3.4 2.1-.1h.2v.1l2.5 3 .1.1v.2l-1.2 4.4 3.2 3 8.6.5h.1l5.8 3.5v.1l3.8 6.8 6 3.6 4.1-1.1h.2l.1.1 1.7 1.8 2.9-3-2.5-2.4-.2-.1.1-.2.7-1.6v-.1h.2l3.8.1 4-2.6v-2.8l-2.8-1.4-.2-.1.1-.2.9-2.3-2.6-.9-1.7.8-.2.1-.1-.3-2-5.1-5-.2h-.1l-.1-.1-3.2-3.7-3.1-1.9-2.9-2.8-8.6-9.7v-.1l.6-4.9v-.1h.1l3.1-3.6-2.1-.7-.1-.1v-3.4h-2.6l-1.7 1.6-.1.1h-.1l-3.6-.2h-.2l-1.7-1.8h-1.6l-2.4.8-3.8 2.9-2.6 5.2v.2h-.2l-4.2-.3-2.3 1.2-1.7 2.6 1.8 1.9v.1l.8 2.4v.1l-.3 2.1h4.4v.2l.6 4.9zm-29-47.2l-2.5.2-4.1 3.2-2.3 3.2-4.6-.2-2.7 4.5-3.3.4-.1 3.6-4.8 3.1.2 4.6 2 2.4-2.2 2.8.5 2.2 3.1.8.7 3.2-1 1.8h.2l2.1-.5h.1l1.1.6 4-.8 1.6-2.4.9-3.7v-.1l.1-.1 2.5-2.5.4-1.6.1-.1h.1l1.5-.2.3-2v-.2h.1l4.5-1.5-.1-6v-.1l.8-1.9v-.1l1.5-1.2 1.4-4.5-1.9-3.1v-.1l-.2-3.7z"/><path class="st1" d="M131.1 116.2l-4.3.1-5.4 2-.2 4.3.5 1.9-1.6 1.3-1.2-3-2.1-.1-3.2-3.1-4.1 2.6-2.7.3.2 3.7 1.9 3.1.1.1-.1.1-1.5 4.6.7 2.3 2.6-1.3h.2l1.7.8.1.1 1.3 2.4 2.3-.3h.2l1.5 1.4 1.3.1.7-.9.1-.1.1.1 2.5.8h.1l.1.2.1 2v.1l-.7 1.3.7 1.2 2.8.1h.2v.2l.4 1.5 1.7.2h.2v.3l-.5 2.4 1.6 3.1v.1l.3 2.7 2.1-1.1h.2l4.1.3 2.5-5.2v-.1l4-3 2.5-.8h3.5l1.8-1.4-3.3-4.3-2.1-.4-.2-.1v-.1l-1-3.3-1.4.1-.2 2v.3l-.3-.1-1.1-.2-.1-.1-.8-1.4-1.1.3-.1 2.4v.2h-.3l-1.5-.4h-.1l-.1-.1-.8-1.7h-4.2l-.1-.1-1.7-2.4h-4v-.1l-1.1-1.3-.1-.2.1-.1 6.7-8.1-.4-8.2zm57.5-16.3l1.1-6.7 1.5 2.2-.6 4.7 2 4.2.5 6.9 2.7 4.2.7 4.3 10.2 6.1 6.2-1.1 4.7-6.4 1.3-6.8-2.1-8.1.3-11.8-1.3-4.3-3.3-5.2-.5-4 1.4-.9 2 2.7 2-1.3-1.9-3.5-6.9-4.7-9.9-.9-2 1.4-4.9 2.9.1 3.9-3.4 5.5-6.6.1-2.3 2.8 4.9 6.5.1.1-.1.1-.7 3.8 4 2 .1.1.7 1.2z"/><path class="st1" d="M176.4 127.1l-.3-2.2.4-1.8-1.7-2.3 1.6-2.9 4.8-6 4-1.3 2.4-4.1.9-5.8-1-1.7-4.1-2-.2-.1.1-.2.7-3.9-4.7-6.3-5.5 7-2.9-.2-3.7 2.5-2.6-.1-1 2.6-1.2 2.2-2.1 1.6 1.2 2.2-1.4 1.4-4.9-.7-1.3 4.5-.9 6.9-2.9 1.2-12.8-1.7-5.7.2.1 3.8 3.2-.7 4.2.6h.1v.1l1.7 2.3v.2l-.1 2.8v.2l-1.5 1.6.2 3.2v.1l-.4 2.8v.1h-.1l-2.1 1.6-.6 1.6.8 1.7 1.1.2.2-2.2v-.2h.1l1.4-.5h.2l.1.2.9 1.4.7.2.2-2v-.2h.2l1.7-.1.2-.1.1.2 1 3.4 2.1.4h.1v.1l3.3 4.3.5-1.4-.4-4.1.1-.1 1.4-2.9h.1l5.3-5.8.1-.1.1.1 3.2.7h.1v.1l1 1.8v.2l-.5 3.1v.1l-2.3 2.3-3.9 4.3-1.1 3.8h2.9v3.6l2.1.7 1.5-1.7.1-.1h2l.7-3.5.1-.1 3.6-3.7-.9-1.5-1.1-1.9-.1-.1v-.1l.9-2.9v-.1l3.5-3.5.3-1.9.1-.2h.2l2.4.7 1.5.3 1.9-2v-.1l.3-.1zm55 26.4l-4.8 6.2 1.7 2.6v.3l-1.1 2 .8 3.3v.2l-.1.1-3.1 1.7-.1.1-.2-.1-3.9-2.5-3.8.1-.2.1-.1-.2-.6-2.9-9.6-7.3-1 1.6 2.6 4.3.1.1v.1l-.9 3.7v.1l-2.3 2.3 1 1.8.1.1.1 2v.2h-.2l-3.8.2-2.9 3.9-.2 2.3 3.6 1.5 1.5-1.8v-.1h.1l3.4-1.1.2-.1.1.2 2.1 4.2.1.2-.2.1-7.8 6.2-.2 3.5v.1h-.1l-2.7 2.1-.1.1h-.2l-3.4-1.4-2.4 2-7.3 8.1.7 1.7v5.5l1.2.9 3.1-3.4.1-.1.1.1 9.2 3.5 3.2-1.4 1.8-4.5.1-.2h.2l6.1.6h.1v.1l4.6 5.1 4.9 2.6 7 .7 2.7-1.5.2-.1.1.1 7.5 6.2 4.6.6 8.4-14.2v-.1l6.2-5.6 1-3.4v-.1h.1l6.2-5.5.2-.2.1.2 1.3 2 3.5-.1 4-3.7h.2l6.3-.1 4.5-3.8h.2l8.9-.4 2.4-2.8.1-.1 3.5-1.1 2.1-3.3-1.3-4.5-.1-.1.1-.1 1.6-2.9-1.7-.4-1.1 1.7-.1.1h-2.2l-2.8 2.6-.1.1-.1-.1-3.3-.7-2.5 2.9-.1.1h-.1l-7.4.6h-.1l-.1-.1-32.3-23.1-3.1 1h-.1l-14-1.5zM182 118l1 1.1 1.4-.9-.4-1.6-1-.8-.8 1.1-.2 1.1zm97.1 3.7l1.7-1.3v-2.7l-2-.5.3 4.5z"/><path class="st1" d="M306 160.8l-2.5-4.5-6.5-7.1h-5l-.6 2.9-.2 4.3-3.5 2.1-1.9-.4-1.4 1.9-2.4-1.9 2.8-2.6v-2.9l-9.2-.1-4.6-3.4-7 .6-2.5-3.4 4.2-.4 2.2-4.3-5.6-1.3-2.7 3.2-1.3-2.4-14.3-3.5-1.8 1.8-2.1-1.9-7.6 4.4-3.9-3.8 1.2-3.4-1.2-3.4 4.7-1.5 4.3 3 2.1-3.4-.2-6.2-5.7-6.2-1.7 6.1-7.8 5.1-.7 3.9-3.7 3.4 1.4 7.8 4.2 6.2 3.7.4.1.1.1.1 2 2.9 14 1.5 3.1-1h.2l.1.1 32.3 23.1 7.3-.6 2.5-3 .1-.1.2.1 3.3.7 2.7-2.5.1-.1h2.2l1.1-1.7.1-.1h.1l2.1.4 1.6-2.9-1.7-3.1-.1-.2.2-.2 3.1-2.6z"/><path class="st1" d="M294.5 147.3l-2.9.3-2.3-3.8.6-3.5 3.7-.9 1.1 3.9-.2 4zm-44.8-18l2.3 3 5.2.1.7-2-.4-2.9-2.8-3.1-4 1.4-1 3.5zm39.3 4l1.2-11.6 1-4.5 3.8-4.1 4.6-1.5 1.8-2.6-1.1-3.2 3.4 2.1 3-.3.8-2.3 2 .2.1-2.3 2.5.9.4-2.3 1.9 2 1.3-1.8.5-2.8 2.6 1.9 1.7-1.6 3.5.8 2.9-3.4 22.3-.4 5.3-2.9.6-4-2.3-2.7-5.3 1.3-.9 2-9.2-.7-4-3.4-3.5 2-3.5-1.5-4.4 2.9h-3.7l-1.8 1.5-2.4-2.6-1.3 5.3-2.7.2-.3 2.1-6.9 2.2-2.4-1.1-1.6 1.8 2 2-2.7 2.6-4.4-1.8-.7 3.3-3.2-.1-.1 2.6-4.4 2.3-2.8-1-3 2.3-.2 3.4 2.9 2.9.2 4.4-2.8 2.8 2.2 4.7 2.4.3.1 2.1 2.8.6 1.8 1zm-69.5 2.6l-4 3.5-1.8-3.4 2.6-.5-3.3-6.1-4.9.7-5-1.6-6.1.9-3.4 8.4-2.5-1.4-3.5-8.2.5-6.4-5.7.6-1.6 5.5 2.5 3-2.4 3.2-3.7-2.1-.7-4.4h-.1l-1.9 2.1-.1.1h-.1l-1.7-.4-2.1-.5-.3 1.6v.1l-.1.1-3.5 3.5-.8 2.7 1.1 1.9 1 1.6.1.1-.1.2-3.7 3.8-.8 3.6v.2h-2.2l-1.6 1.7-3.3 3.8-.6 4.7 8.4 9.6 2.9 2.7 3.1 1.9v.1l3.2 3.6 5 .2h.2l.1.1 2 5.1 1.5-.7h.2l2.9 1 .2.1-.1.2-.8 2.4 2.7 1.3.1.1v2.9l2.8-.4h.1l.1.1 2.3 2.7v.2l.3 3.2 2.2-1.8.1-.1.2.1 3.4 1.4 2.5-2 .2-3.4v-.1l.1-.1 7.8-6.2-2-3.8-3.1 1-1.6 1.9-.1.2-.1-.1-3.9-1.6-.2-.1v-.2l.2-2.5v-.2l3.1-4 .1-.1h.1l3.6-.2-.1-1.6-1.1-1.9-.1-.1.1-.2 2.4-2.3.8-3.6-2.7-4.4-.1-.2.1-.1 1.3-1.9.1-.2.2.1 9.9 7.6v.1l.7 2.7 3.6-.1h.2l3.9 2.5 2.8-1.6-.8-3.2v-.2l1.1-1.9-1.7-2.7-.1-.1.1-.1 4.9-6.4-1.9-2.8-3.8-.5h-.1l-.1-.1-4.2-6.3-1.4-7.6zM350 46.8l1.6 1.5 2.3-1.9-1.2-1.6-1.6.4-1.1 1.6zm3.5 1.3l1.3 1 2.1-1.1.6-2.5-1.6-.4-2.4 3zm5.8-.3l2.1 1.9 4.3-2.1-.8-2.4-2.9-1.3-2.6 2.2-.1 1.7zm4.6-4.6l1.8.9 1.2-1.4-1.5-1.4-1.5 1.9zm8-5l.6 1.9 1.8-.7-.7-2.3-1.7 1.1zm-6.1-4.8l1 .9 1.3-1-1.9-1.8-1 .8.6 1.1zm-5.5 1.2l.3 1.5 2.1 1.4 1.2-1.9-1.1-2.2-2.5 1.2zm-3.9 1.6l3.8 3.5-.5 2.9-3.8-1.3-2.6-2.9 3.1-2.2zm10.7 11.1l.5 2.2 4.3-.1 1.7-2.8-1.4-2.3-1.8 2.6-2.8-.7-.5 1.1zm-11.6 5.1l1.1 1.6 1-1.3-1-1.8-1.1 1.5zm-10.6-11.2l1.8 2.9 2-1.9-1-2.4-2.8 1.4zm5-.9l.4 1.7 1.1-.8-.9-1.9-.6 1zm-1.8-9.6l1.3 1.8 1.2-1.2-2-1.8-.5 1.2zm-12-3.7l.6 2.5 1.9 1.4 2.6-.2 1.6 1.3 1-1.2-2-1.8-1.8.5-3.9-2.5zm.5 6.2l-.2 2.1 2 2 1.9 2.4.6-1.1-.5-2.4 2.6-.6 3.4 1.2 2.1-2.2-1.9-2.2-1.7-.6-1.7 1.3-2.3.3-1.4.6-2.9-.8zm4.2 8l-.4 1.4 1.5.9.1-1.9-1.2-.4zM40.4 104.6l8.9 19.1 5.5-2.9.4-10.5-2.6-4.1-1.2 4.8-2.6-1.7-2.1-6.2-2.7 1.7-3.6-.2zm31.1 140.3l-.1 1.3-4-.1-1.6 2.3-2.1.3-2.5 4.4-4.1 1.6-3-4.5-7.1-.9-3.3 3.4 7.1 4.2-2.1 1.4-3.6-2.2-2.1 1.7 1.2 2.4h2.7l.1.1 3.1 3.8.1.2-.1.1-2.3 4.4 3 3.7.1.1-.1.1-.7 1.4-.2 3 1.8 2.1 1.6-1.8.1-.2.2.1 2.7 1 1-1.6.1-.2.2.1 2.1.9h.2v3.5l2.6 1.2.1.1v3.3l1.4 2.2 3.1-.4 1-1.8.1-.2h5.3l3.1-3.4-.1-1.7-2.9-.4h-.2v-.2l-.2-2.5-2.7-3.7-.1-.1.1-.1 1.4-5.2-1.8-2.6-.1-.2.2-.1L74 263l.2-.1.1.1 1.4 1.4 2.7-.2 1.5-3-.5-5.2-.1-.2.2-.1 4-2.6-.7-6.4-3.1-.1-2.3 1.6-.2.1-.1-.1-2.5-1.7-3.1-1.6z"/><path class="st1" d="M98.7 283.5l4.4-1.4.7-3.4 3.8-2.1 4-1 1.5-.5-.2-5.5-2.4-.5-.1-.1h-.1l-1.2-1.8v-.1l-.1-3.2-1.6.6h-.1l-1.9-.1h-.2v-.3l.1-2.4.1-.1 1.9-2.2v-3l-4.2-4.2-2.5-.5h-.1l-.1-.1-1.7-2.3v-.1l-.3-3.2-3.6-1.2-.1-.1v-.1l-1.5-3-2 .6h-.1l-3.8-.5-.3 2.6v.1l-.1.1-3.6 2.1.7 6.6v.1l-.1.1-4 2.7.5 5.1v.1l-1.7 3.3v.1h-.2l-2.9.2h-.1l-.1-.1-1.3-1.3-3.4 2 1.7 2.5v.2l-1.4 5.1 2.6 3.6 6.4.7.6-1.8.1-.2h.2l2.2.2h.1l.1.2.7 3.3 2.4.3 2.2-1.4h.2l7.7 1.6h.1l.1.1 2 3.6z"/><path class="st1" d="M79.7 313.4l4.1 1.5 11-.3-.9-4.3 2.7-.5 2.1-11.8-1.8-2.5-2.8-.6.4-2.2 3.4-3.2-3-4.2 1.5-.7 1.9-.9-2-3.4-7.5-1.6-2 1.3 1.4 3.6v.1l-1.5 6.8 1.8 3.2.1.1-.1.1-1.8 5.2.7 3.2.1.3h-.3l-3.2-.4-1.7.8-.2.1-.1-.2-1.2-1.7-1 1.2 1.7 4 .1.2-.2.1-2.3 1.9-2 1.1 2.6 3.7z"/><path class="st1" d="M71.1 315l4.1.1 3.9-1.8-2.6-3.6-.1-.2.2-.1 2.3-1.2 2.1-1.8-1.7-4-.1-.1.1-.1 1.4-1.6.2-.3.2.3 1.2 1.9 1.6-.7v-.1l.1.1 2.9.3-.7-3 .1-.1 1.7-5.1-1.7-3.2-.1-.1v-.1l1.5-6.8-1.4-3.6-2.6-.3-.1-.1-.1-.1-.7-3.3-1.8-.2-.6 1.9-.1.1h-.2l-6.4-.7.1 2.1 2.9.3h.2v.2l.2 2v.2l-3.3 3.6-.1.1h-5.2l-1 1.9-.1.1h-.1l-3.5.4h-.1l-.1-.1-1.4-2.4-.1-.1v-3.1l-2.5-1.2-.2-.1v-3.4l-1.8-.8-1 1.6-.1.2-.2-.1-2.7-1-1.6 1.8 1.8 2.2 1.8-.4h.2l.1.1 1.2 1.8 2.4.7h.2v.1l1.1 2.9 2.5 4.4h.1l-.1.1-.7 4.3 2.7 4.8v.1l.9 3.8-.1 3.9 4.1 4.1v.1l.9 2.4z"/><path class="st1" d="M45.9 328.6l-1.4 1.4.3 3.9 3.6 5.2-.2 5.5-.7 2.6 3.3 4.1 1.6-.7.9-1.5 1.9 1 2.1.6 2.5-1.5v-6.9l1.7-9.8 6.3-6 .5-6.3-.7-2.7 3.1-2.3-.9-2.4-4-4-1.5 1.2h-.1l-4.3-.1-2.3 1.8.8 1.6.1.2-.2.1-2 1.3 2.6 3.7 2.8.6h.1l.1.1.9 3.5v.2l-.2.1-2.1.9h-.1l-2.2-.2-2.9 5.5-.1.3-.2-.2-2.2-1.9-1.3 1.5-.1.1h-.1l-5.4-.5z"/><path class="st1" d="M44.8 323.7l.9 2.5.4 1.9 5.1.5 1.4-1.6.1-.1.2.1 2.1 1.8 2.8-5.3.1-.2h.1l2.3.2 2-.8-.8-3.1-2.8-.5h-.1l-.1-.1-3.7-5.3-2.9-.2-1.4.6 1.6 6v.2H52l-7.2 3.4z"/><path class="st1" d="M43 321.2l.1 1.1 1.4 1 7.1-3.3-1.5-5.7-1.3.6-1.2 3.8-.1.1v.1l-1.8 1.4h-.1v.1l-2.6.8z"/><path class="st1" d="M37.5 313l.2 4.5 5.3 2.4v.8l2.4-.8 1.7-1.4 1.3-3.9v-.1h.1l2.9-1.3-2.3-1.9-.8 1.5-.1.2-.2-.1-5.9-1.4-4.5 1.4-.1.1z"/><path class="st1" d="M33.7 304l2.7 3 .2 4.2.8 1.3h.1L42 311h.1l5.8 1.4 1.9-3.2-.8-2.6h-2.9v-.1l-5.4-4.8-3.8-.2-3.2 2.5z"/><path class="st1" d="M27 291.5l3.2 5.3v3.3l3.2 3.5 3.3-2.5v-.1h.1l3.7.2-.1-3.9v-.1l.1-.1 2-1.4-2.9-5.3-.9 1.9-.1.2-.2-.1-3.4-.3h-.1l-.1-.1-1.9-2.6-5.9 2.1z"/><path class="st1" d="M20.9 257.2l.3 4.6-1.4 1.7.7 2 2.1 1.6-.1 3.3 1.2 5.2-.4 4.8-.9 8 1 1.4 2.1-.9 1.4 2.3 6.2-2.2.2-.1.1.1 1.9 2.6 3.2.3 2.3-4.6v-.1h.1l2.4-1-.9-1.4-.1-.1.1-.1 1.4-2.5-1.5-1.3-.2-.2.2-.2 1.8-1.8.2-1.5v-.1l.1-.1 2-.9.2-.1.1.2 1.3 2.3 1.7-1.4.2-3 .7-1.3-3-3.7-.1-.1.1-.1 2.3-4.4-2.9-3.6h-2.8l-.1-.1-1.6-3.1-4.8-4.3-.7 6.3-2.6-1.3-5 .3-1.8 2.4-3.7-6.1-3 2.3zm4.9 28.7l-.2-3.1v-.4h.4l3.2-.3V280l.1-.1.1-.1L33 277l-2.3-1.4-2.9-3.4-.1-.1-.1-.1v-.2l.4-2.7v-.6l.3.1.3.1 2.5.9h.2v.2l2 3.2h3.2v.4l.2 2.9 2 1.7.1.1.1.1v.2l-.2 4v.4l-2.9 3.8-.4.5-.4.5-.1-.6-.1-.6-.4-3.3-4.5 5-.1.1-.1.1-.2-.1-.2-.1-3.4-1.6-.1-.1-.1-.1v-.1l.1-.3z"/><path class="st1" d="M49.6 277.5l-1.8 1.5-.2.2-.1-.3-1.4-2.3-1.6.7-.2 1.5v.1l-.1.1-1.6 1.6 1.4 1.3.2.1-.1.2-1.4 2.6 1 1.5.2.2-.3.1-2.6 1.1-1.1 2.1 3.1 5.9.1.2-.2.1-2 1.4.1 3.9 5.3 4.8h3l.1.2.9 2.9v.2l-.9 1.5 2.5 2.1 3.1.2h.1v.1l.9 1.2 1.9-1.2-.8-1.6-.1-.2.1-.1 2.6-2h.1l4.3.1 1.5-1.1.2-3.8-.9-3.8-2.7-4.9h-.1v-.1l.7-4.3-2.5-4.3-1-2.8-2.4-.7h-.1l-.1-.1-1.1-1.6-1.9.3h-.1l-.1-.1-3.9-4.7zm-23.5 5.3l.2 3.1 3.4 1.6 4.9-5.4.4-.4.1.5.4 3.8 2.9-3.8.2-4-2.1-1.7-.1-.1v-.1l-.1-3h-3.1l-.1-.1-2.1-3.3-2.5-.9-.4 2.7 2.9 3.5 2.6 1.6.3.2-.3.2-3.9 2.9v2.3h-.2l-3.4.4zm407.6 95.5l11 4.4 10.2 2.4 2.1 8.1 7.4 3.9 5.3-.1 7.4-4.5 5.8 1.8 6-.3 1.5 2.7 3.5.1 1.1-4.1v-.2h.1l3.3-1.7-3.5-3.9-.2-.2.2-.2 3.5-2.8-1.3-3.9-.1-.3h6.9l4-3.4.1-.1h.1l3.6.5 6.8-8.9.1-.1h.1l4.3-.3 1.3-2.2.1-.1 3.7-1.5 2.8-3.5.4-3.7-3-2h-.1v-3.9h.1l6.4-5 2.2-5 .1-.1.1-.1 5.6-2-.3-4.5-3.5-3.1-3.8-.7h-.2v-.1l-3.2-9.7-2.1-1.9-.1-.1.1-.2 2-2.8-.3-2.8-2.3 2.7-.1.1-.2-.1-2-.3-1.1 4.4v.2h-.2l-10.8 2.9-.1.1-.1-.2-1.8-2.4h-2.5l-.1-.1-2.3-1.2-1.3 3v.1h-.1l-5.2 1.7v.1l-.1-.1-2.7-.9-.6 3v.2h-.2l-5.2.6.4 2.6 3.2 2.7.2.1-.2.2-2.6 3.2-.5 4.8 1.7 4.1.3-.8 1-6.6v-.1h.1l1.7-3.1.1-.1h.1l2.3.3h.2v.2l.4 2.5v.1l-1.1 5.9.4 5.9 1 3.1v.2l-1.2 3-.1.1-1.8 1.7-.6 1.1.6 2.1v.1l-.8 2-.1.1-.1.1-1.9.4-.2 2.3v.1l-2.5 4.1-.1.1h-.1l-3.7 1.2-2.5 3.4-.1.1h-.2l-2.8-.3-.8 4.4v.1l-2.1 2.4h-.1l-6.9 3.1-.9 3v.2h-.1l-4.4 1.5-.3.1v-.3l-.7-2.5-4.6-.9h-.2v-.2l-.4-3.4-3.2-4.1h-4.4v-.1l-9-7.1-2.8-3.8-4.5 3.2h-2.7l.2.5v.2l-.1.1-1.4 1.3.5 2 .1.1-.1.1-1.9 2.2 1.7 3.3z"/><path class="st1" d="M370.5 397.1l16.8-6.3 6-.4 1.1 1.6 9 2 .6 4 3.4 1.7 9.5 1 3.8.6 2 1.8 3-1.1 2.7-2.3 2-4.8-3.3-3.9.4-6.1 2.1-.6.1-2.7 2.8-.2.7-2.9-1.7-3.4-.1-.2.1-.1 1.9-2.2-.5-2v-.1l.1-.1 1.4-1.4-.4-1.4-3.9.3h-.1v-.1l-9.9-6.8-.6 2.7v.1l-.2.1-11.9 1-.8 3.2v.1l-.2.1-2.3.6.2 2.2.1.1-.2.1-3.2 2.1-.1 2.1v.2h-.2l-2.2.5-4 3.3-.1.1h-.1l-9.2-1.2-.1-.1-5.6-3.9-2.6-.2-1.7 4.4-.1.1-.1.1-6.5.4.4 4.5 3.9 6.9.1.2-.2.2-2.7 1.9.6 4.2z"/><path class="st1" d="M334.2 383.8l.5 4.5 4.2 2.4.1 4.4 4.2.9 1.7 2.1 4.7-2.5.9 3.3 3 4.4 4.7.5 1.4-3.1 6.3-.3 4.2-3.1-.7-4.6v-.1l.1-.1 2.7-1.8-3.8-6.8v-.1l-.4-4.4-3.4 2.6-.2.1-.1-.2-3.1-3.9-.1-.1v-.1l1.1-4.7-1.7-2-5.2-.2v.1h-.2l-3.3.7h-.1l-.1-.1-2.7-2.1-.2 2.2v.2l-2.6 3.9-.1.1h-.1l-4.8-.4-3.8 1.3-1.5 2.1 2.4 1.2h.1v.1l.7 2.8.1.3h-.3l-4.6.5zm28.3-11l2.9-1 2.1-1.1 3.6-3.6-.8-2.3v-.2l.6-2.6-.9-3.4v-.1l.1-.1 2.4-3 1.2-3.7-3.5-1.2h-.1v-.1l-.7-2.2v-.1l.1-.1 2.8-3.6-1.5-3.6v-.2l.7-2.8v-.1l.1-.1 3.7-1.7 1.8-1.8-3.9-7.5v-.2l.6-2.6-4.2 1.8h-.2l-5.4-2.4-6.2.9-2.3 2.8-.1.1h-6.5l-.1 17.1 2.3-.3h.2v.2l.4 3.4 3.2 3.4 1.1 3 3 2.1.2.2-.2.2-2.3 2.7 1.8 2 .1.1v.1l-.9 3.5v.1l-.1.1-2.3 1.5-.2 4.1 5.3.2h.1l.1.1 1.9 2z"/><path class="st1" d="M301.2 345l6.4 30.3 3.3-.5 2.4-3.4 2.2.9.7 3.5 7.1 3.9 5.7-2.1 3 1.3 2.1 4.5 4.1-.5-.5-2.5-2.5-1.2-.3-.2.2-.2 1.7-2.4.1-.1 4-1.3h.1l4.6.4 2.6-3.8.2-2.5v-.5l.4.3 2.9 2.3 3-.5.2-4.5v-.1h.1l2.4-1.5.8-3.3-1.9-2.1-.1-.2.1-.1 2.2-2.7-2.8-2h-.1v-.1l-1.1-3-3.2-3.5-.1-.1-.4-3.3-2.3.3-2.9 2.7h-.2l-5.6-.5-1.7 1.3-.1.1-.2-.1-1.7-1.4-4.9 4.8-.1.1-.2-.1-3.8-3.7-.1-.1-.7-2.8-3.1-4.2-12.8 4.4-.1.1-.1-.1-2.7-1.1-1.3.8-.1.1-.2-.1-2-1.2-2.7 1.5z"/><path class="st1" d="M291.4 332.2l6.8.1-2.8 2.9 5.7 9.4 2.7-1.6.1-.1.1.1 2.1 1.2 1.2-.8.1-.1.1.1 2.8 1.1 12.9-4.4.2-.1.1.2 3.3 4.3v.1l.7 2.8 3.6 3.5 4.8-4.8.2-.1.1.1 1.8 1.4 1.6-1.3h.2l5.6.5 2.8-2.5.1-17.3h-2.2l-3.2 2.6-.2.2-.2-.2-1.3-1.8-.1-.1.4-6.6-9.4-.3h-.1l-.1-.1-1.7-3.1-4.8.1h-.2l-.1-.2-.9-3.4-3.1-4-16.4-7.8v5.4l-.1.1-3.1 1.8.9 3.5.1.3h-.4l-4-.3-3.1 1.3-1.9 3.3.5 9.4v.1h-.1l-2.1 5.1z"/><path class="st1" d="M266 310.3l1.9.5.1 3.4-1.2 1.3.8 2.4-2.6 3 .5 2.2 5.6 1.3.3 3 2.7.1 2.1.5 2.1 2.4-3 2.5v2.1l3-1 2.6 1.5 2.4-.5 1.9-1.7 5.7-1.1 2.2-5.2-.4-9.5v-.1l1.9-3.4v-.1h.1l3.3-1.4h.1l3.7.3-.8-3.4-.1-.1.2-.1 3.1-1.9v-13.2l-2.2-2.3-.2-.2.1-.2 2.4-2.9-.2-1.8-4.4 3.1h-.2l-3.3-.1h-.1l-.1-.1-3.3-1.8-3.6.5h-.1l-4.7-3.4-2.2-.4-.3-.1.2-.3 1.5-2.1-2.3-2.3-4.4 4.3-.4 3.9v.2l-1.3 1.5.4 1.3 2.7 1h.1v.1l1 2.6v.2l-.6 2.4v.1l-.9 1.5-.1.1h-.2l-3.2-.7-2.5 2.7-.7 3.1v.1l-4.3 4.1-.8 2.1z"/><path class="st1" d="M357.1 275.8l-3.5-2.5-7.1 4-.1.1-.2-.1-5.9-4.3-8.4-.2h-.2l-5.6-3.7-3.9-1.2-3.7 2.8-2.8 8.9-.1.2h-.2l-3.2-.4-2.5 1.6-.5 2.7-.1.1-.1.1-4.4 2.5.2 2.2v.2l-2.3 2.8 2.1 2.3h.1v7.7l16.7 8h.1l3.1 4.1v.1l.9 3.3 4.9-.1h.1l.1.1 1.7 3.2 9.5.2h.2v.3l-.4 6.7 1.2 1.5 3-2.6h9.3l2.3-2.8h.2l6.3-.9h.1l5.4 2.4 4.4-1.9.2-4.4v-.2h.1l4.5-3.5.6-2.1-4-1.2-.1-.1-2.8-2.8-.1-.1v-.1l-.4-3.7v-.1l.1-.1 4.9-4.3.2-2.5-3.3-.4-.1-.1v-.1l-3.7-7.5-12.6-2h-.2v-3.8l.1-.1 1.6-2-1.7-6.2zm16.2 61.5l-1.5.7-.6 2.6 1.5 3.7v.2l-2.8 3.6.6 2 3.6 1.3h.2l-.1.3-1.3 3.9v.1l-2.4 3 .9 3.3v.2l-.7 2.5.9 2.4.1.1-.2.1-3.7 3.7v.1l-2.2 1.1h-.1l-2.9 1-1 4.6 2.8 3.7 3.5-2.7.4-.3v.2l6.4-.4 1.7-4.5.1-.1h.1l2.7.2 1.9-4 .1-.1h.1l3.4-1.3 1-2.3v-2.7l.1-.1 3.2-1.7-.2-2.6-1.3-3.9h-.1v-.1l-.6-3.6-2.8-4.4-.1-.1.1-.1 1.2-2.7-2.2-1.3-3.6.4h-4.1l-.1-.2-2-5.8zm-6-193.7l2.3 2.9 1.5-.7-.5-4.1-1.5-.8-1.8 2.7zm6.2-18.4l1.2 1.5 1.2-1.3-.6-2-1.5.4-.3 1.4zm42.6-71.4l4.9.9-1.2-3.6h-3.4l-.3 2.7zm4.1 9.2l2.6-3.6-.6-3.1 2.6-1.7 2.6-2.7 2.9 2.7 1.7 4.6.9 2-2.6 1.5v2.5l-6.7 3-3.4-3.1V63zm-2.5 4l5.1 2-.7 2.4-2.3 1.3-3.5-2.4-.5-2.2 1.9-1.1zm4.6 8.1l2.3-5.6 6.2-3.1 1.2 4.4 1.6-.5.2-1.9 2.9 2.8-.3 3.6-2.1 3.4 1.8 2.2-.5 3.1-2.3 1.3-4.6-3.2-4.1-3.6-2.4-1.1.1-1.8zm16.3 3.2l-.5 7.3-2.8 5.1 1.1 3.8 4.5-3.6 4.8-.4 2.5-2.5.4-5.9-2.7-3.4-2.3 2.3-1.2-1.3.1-3.5-3.9 2.1zm13.5 10.6l.4 2 3.6.8-.2-1.4-3.6-2.2-.2.8zm-27.2 14.7l1.9 1.3 1.3-.8-.9-2-2.3 1.5zm-16.5-2.7l2.3 1.3.2-1.9-1.6-1.8-1.1 1 .2 1.4zm14.5 7.8l.9 1 1.2-1.1-1.3-1.4-.8 1.5zm-39.7 24.6l1.8 1.6 1.2-1.2-.5-1.9-1.5-.4-1 1.9zm4.3 2.1l1 .8.7-1.3-1.1-1.3-.6 1.8zm2.7-4.9l1 .7.6-1.2-1.6-1v1.5zm1.8-2.7l1.1.9 1.1-1.6-1.8-1.2-.9.6.5 1.3zm-8.2-9.3l1.3.9 1.9-1.2-1.1-1.8-1.6-.5-1.6 1.3 1.1 1.3zm4.1-6.6l-.5 1.2 1 1.4 1.1-1.2.1-1.3-1.7-.1zm-3.1-46.3l-.3 1.5 1.6 1.6h2.2l-.1-1.9-1.5-2.1-1.9.9zm9.9-11.9l2.1.6 2.2-.6-1.3-2.9-1.7-1.4-1.2 1.2-.2 1.8.1 1.3zm84.4 191.5l-1.6 1.8-.1.1h-.1l-3.8.8-3.4 1.5.2 3.8 1 2.5v.2l-1.9 4.3 1.9 3.1v.2l.4 4.6v.2l-3 5.8v.1h-.1l-5 3.1 1.9 3.2.1.1-.1.1-2.1 2.9 1.1 3.7 4.2 1.4h.1v.1l.6 2.8v.1l-.1.1-3.1 3.3-.2 2.3 2 .5h.1v.1l1 3v.1l-.1.1-2.3 2.3-1 3.5-.1.3-.3-.2-4.4-2.6h-.1v-.1l-2.1-4.5-4 1.8-.6 3.8v.1l-.1.1-8.9 9.7.4 4.5v.2l-.2.1-2.4 1-.2.1-.1-.2-3.4-7.4-2.3 3.1-.1.1h-.1l-8.7.1-3.6 6.7 4.1 6.4.1.1v.1l-.8 3.6v.2h-.2l-4 .6-2.3 4.4-.8 11.9v.3h-.3l-3.9-.4-2.8 1.3v2.3l6.7 6 10 7 4-.3h.2v.2l.2.7 2.6.1 4.6-3.3.2-.1.1.2 2.9 4 8.8 7h4.4l.1.1 3.3 4.3v.2l.4 3.3 4.6.9h.2v.1l.6 2.4 4-1.3.8-2.8h-4.4l-.1-.1-.9-2-.1-.2.2-.1 2-1.2 2.7-.4 5.5-3.8 2-3 4.1-3.7.9-2.7 2.4-4.1 2.9-4.5 2.5-6.9 1.9-5.5-2-4.6v-.2l.5-5v-.2l2.6-3.1-3.1-2.6-.1-.1v-.1l-.5-2.9v-.3h.3l5.3-.7.6-3.1.1-.3.3.1 2.8 1 4.9-1.6 1.3-3.2.1-.2.2.1 2.5 1.3h2.6l.1.1 1.8 2.4 10.5-2.8 1.2-4.5.1-.2h.2l2.1.3 2.6-3 .4-.4.1.6.3 3.2 6.4 1 3.8-2.6.2-4.9-4-2.8-.1-.1v-.1l-.3-6.2v-.1l.1-.1 2.2-1.7h.2l5.5-.2-5.1-11.6-2.8-1.9-4.8 2.2-.2.1-.1-.3-1.8-5.3-7.7-3.1-3.9.6-6 12.9-4 4.7-.2.2-.2-.2-2.9-2.9-1.9 3.3-.1.1h-.1l-5.5.2-3.8 2.9-.2.1-.1-.2-3.6-3.8-.1-.1v-.1l.7-9.9 3.3-7.6-4.2-1.3h-.1v-.1l-2-4.5v-.2l1.5-6.3-3.4-1.9-.1-.1v-.1l.2-6.2-2.5-4.9-2 1.4-.1.1h-.1l-2.9-.2h-.2v-3.4l.1-.1 2.3-1.4-1.9-3.1zm-23.6 120.2l-.5-2.4v-.2l.2-.1 2.3-.7-1-3.5-.1-.2.2-.1 2.8-1 .2-.1.1.2 2.2 4.3 5.4-3.2.2-.1.1.2 1.9 2.6 1.6 1.5 2.1-.8h3l.1.1 1.4 2.3.1.1-.1.1-5.6 7.1-.1.2-.2-.1-3.4-2.4-4.2.4h-.2l-2.5-1.5-2.9-2.1-3-.3h-.2l.1-.3z"/><path class="st2" d="M455.6 363.2l.4 2 2.8.2h.1l.1.1 3 2.1 2.3 1.5 4.1-.4h.2l.1.1h.1l3.2 2.3 5.3-6.8-1.2-2.1h-2.7l-2.1.8-.1.1h-.2l-.1-.1-.1-.1-1.6-1.5h-.1l-1.7-2.5-5.2 3.1-.2.2-.3.1-.1-.2-.1-.3-2.1-4.1-2.3.9.9 3.3.1.2v.2l-.2.1-.2.1-2.1.7z"/><path class="st1" d="M494.4 396.9l2.2.1 2.2 4.2 17.1 1.6 11.5-6.9 3.7-.1 1.2-3.8 5.6-5.2 7.8-.4 2.3 2.2 3.3-3 13.8 2.2 2-5.4 4.7-3.3-2-4.8 2.1-13.1 3.5-3.5-2.4-6.3-5-.5 3.5-6.5 6.2-4.3-5.6-8.4-.1-.1.1-.1 1.9-2.7-3.4-1.9-.1-.1v-.1l-.5-6.6-3.3.8h-.2l-.1-.2-2.1-3.7-4.4 2.5-.2.1-.1-.1-2.7-2.7-.1-.1.1-.2 1.6-2.2-5.4-3.6h-.1v-.1l-6.9-12.9-5.6.2-2.1 1.6.3 5.9 4 2.8.1.1v.1l-.2 5.1v.1l-.1.1-3.9 2.7-.1.1h-.1l-6.5-1-1.8 2.6 1.9 1.7v.1l3.2 9.6 3.8.7h.2l3.6 3.2.1.1v.1l.3 4.8v.2l-.2.1-5.7 2-2.2 5v.1l-6.4 4.9v3.3l3 2 .1.1v.1l-.3 3.9v.2l-2.9 3.6h-.1l-3.7 1.5-1.3 2.2-.1.1h-.1l-4.3.3-6.8 9-.1.1h-.1l-3.7-.5-4 3.4-.1.1h-6.5l1.3 3.8.1.2-.1.1-3.4 2.7 3.6 3.9.2.2h-.4l-3.5 1.8-1.1 4.1zm29.5-15.3l1.2-3.1.1-.1.1-.1h.2l6.8-.8 1.9-4 .1-.3.1-.3.2.2.2.2 1.5 1.4 1.6-3.8v-.1l.1-.1h.2l3.4-.7h.2l.1.1.1.1 4.1 2.6.1.1.1.1v.4l-.5 2.7v.4h-.4l-2 .5 3.4 3.1.3.2.3.2-.3.2-.3.2-14.2 6.8-.1.1-.1.1-.1-.1-.1-.1-8.2-5.1-.2-.1-.2-.1.1-.2.2-.6z"/><path class="st2" d="M525.5 378.7l-1.2 3.1 8.2 5.1 14.2-6.8-3.7-3.5-.4-.3.5-.1 2.4-.6.6-2.7-4.1-2.6-3.5.7-1.7 4.1-.2.3-.2-.2-1.8-1.6-2 4.1-.1.1h-.1l-6.9.9zM474.7 245l-.1.1-.2-.1-2.7-2.1h-6.5v-.3l.4-3.6v-.1l3.8-4.6 1.1-2.9-2.4-1.7-.1-.1v-3.4l-2.1-2.3-.1-.1v-.1l1-4.6-2.5-1.9-.2-.2.2-.2 3.7-4.1-1.4-17.3-4.3-6.7 2.1-1.1 5.2-4.2.1-.1h.1l3.1.4 1.1-5.4v-.1h.1l1.5-2.3.4-3v-.2l6.5-5.1-2.8-3.3-.1-.1V159l-5.5-7.9h-.1v-.1l-.7-4-1.8-2.3v-.2l.2-2.2-3.5 1.7-3.9 3-5.3 1.6-2.1 3.6.1-5.2 10.8-11.2 6-10.9 2.8-9.6-8.4-9.6-7.8-.2-2.7 3.9-3.2.5 2.4-6.6-6.4-.8 2.1-3-3.9-3.3-3.6 1.3-5.6 8.4 1.3 4.9-6 .4.1 1.6 2.3 3.3-4.3-1-2.3 2.1-4.9-.9-.7-2.2-7 .1.1 4.1-8.5 1.1-5.7 4.6-4.5.1-3.2 2.9-1.5 5.9 2.8 4.9-4.2 1.1-11.1-1.8-6.4-.2-1.9 3.6-.3 9.1 4 3.9 2 4.6H374l-4.8-9-3.6.2.1.4 3 6.6.2.3h-.3l-3.4.6-.7 4 3.1 6.5v.2l-.8 3.1v.1l-.1.1-7.3 3.2-.9 3.7 4.7 6.2 5.4 1.4h.1l.1.1 1.1 6.7-.3.9-1.9 4.8v.1h-.2l-4.9 1.4 1.5 3.5.1.1-.1.1-1.5 4.6 3.9 5.1v.1l-1 9.3 3.2 4.3v.2l-1.2 6.6 4.7 3.5h.1v.1l.8 4.8v.1l-.1.1-4.1 5.7-.4 5.1v.1l-6.4 8.1v6.3l5.2 3 .2.1-.1.2-.9 2.4-.1.1h-.1l-4.6 2-.1.1-4 .5 1.7 6 .1.2-.1.1-1.7 2.1v3.2l12.5 1.9h.1l.1.2 3.6 7.5 3.4.4h.2v.3l-.2 2.8v.1l-.1.1-4.9 4.3.4 3.5 2.7 2.7 4.1 1.3.3.1-.1.2-.7 2.4v.2l-4.5 3.4-.3 4.5v.1l-.6 2.9 3.9 7.6.1.1-.1.2-2 1.9v.1h-.1l-1.7.8 2 5.7h3.8l3.7-.4h.1l2.4 1.6.2.1-.1.2-1.2 2.7 2.7 4.2.1.1.6 3.7 1.3 4 .3 2.9v.1l-.2.1-3.1 1.7v2.6l-1.1 2.4-.1.1h-.1l-3.4 1.3-1.8 3.9 5.5 3.8 9 1.2 3.9-3.3h.1l2.1-.5.1-2.1v-.1l.1-.1 3.2-2-.2-2.3v-.2h.2l2.4-.7.7-3.2.1-.1.1-.1 12-1 .6-2.8-6.7-5.9-.1-.1v-2.9h.2l3-1.4h.1l3.7.3.8-11.6v-.1l2.4-4.6.1-.1h.1l4-.6.7-3.3-4.1-6.5-.1-.1.1-.1 3.8-7v-.1h.2l9.2-.4 2.5-3.3.3-.3.1.4 3.5 7.5 2-.8-.4-4.4v-.1l.1-.1 8.9-9.7.6-3.9-.1-.1 4.8-2.2.1.2 2.2 4.7 4 2.4.9-3.2v-.1l.1-.1 2.2-2.2-.9-2.7-2-.6-.2-.1v-.2l.2-2.5v-.1l.1-.1 3-3.3-.5-2.5-4.2-1.3-.2-.1v-.1l-1.2-4v-.1l.1-.1 2-2.8-1.9-3.3-.1-.2.2-.1 5.1-3.2 2.9-5.6-.3-4.4-2-3.2-.1-.1.1-.1 1.9-4.3-.9-2.5-.2-4v-.2h.1l3.6-1.6v-.1l3.7-.7 1.6-1.8-1.3-1.7zm305.9-6l-1-13-1.5-6-4.3-4.4.4-6.3 2.2-1.9-7.4-8.6.1-6 3.1-3.4-.7-3.4-6.3-1.8-6.4-11.4 1.6-1 1.9 2.7 3.2-1.9-4.9-4.6-2.6 1.4-4.2-2.7v.1l-2.2-5.1h-4.3l-.5 3-2.8-.2-8.8-17.8.5-5.6 3.5-.8-2.6-10.4 5.6 4.4.2-12.5 4.4-4.6 6.6-.1-3.7-9.3-1.8-19.9-4.4 1.3h-.1l-3.2-1.7-5.6 15.9v.2l-.2-.1-7.1-.1-6.5 2h-.2l-.1-.2-2.1-5.8-8.8.5-1.6 2.8v.1h-.1l-6.1 1.4-1 3.2-.1.1h-.1l-3.3.4-1.1 3.7v.1h-.1l-3.8 1.2.7 3.8 5.4 7.9 3.4.7h.1l.1.2 2.3 6 3.9-.3h.1l2.6 2.4.1.1.7 3.8 3.5 2 2.5-2.3-6.7-8 1.6-5.2 6.4-2.2-3.4 5.1.8 3.9 5.1 3.5 2.3.2-.1 3.6 2.2.5-2.1 10.5 2.4 3.9.7 12.1 1.9 7.9 2.5 7.8-2.9 3.1.9 3-1.6 2.1 4.1 4.7.6 7.5 5.6 6.2 6.6 7.5zm-542.2-18.9h-.1l-.1-.1-7.4-6.1-2.7 1.5h-.1l-7.3-.8v-.1l-4.9-2.5h-.1l-4.5-5.1-5.8-.6-1.7 4.3 4.1 5.4.1.1v.1l.2 3.9v.1l-.1.1-6.8 2.8v2.3l1.8 1.6.2.2-2.1 2.8-1.9 2.1-2.5 6.4v.1l-2.1 2.3-1.4 3.5v.1l-2.3 2.5-.1.1h-.1l-2-.2v4.8h2.4v3.8l4.8.2h.2v.2l.3 2.8 2 .5h.1l.1.1.3 1.4.3 1.9.7 1 1.8-.5 4-4.7.1-.1h.1l4.6-.5 2.9-4.6.1-.3.2.3 2.1 2.3 1.9-1.2.7-3.2v-.2h.2l5.1-.3 1.4-1.7.3-3.5v-.1h.1l2.2-2.6-1.6-3.2h-.1v-.1l.2-2.6v-.2h.1l5.4-2.5 6.2-6.1 4.2-5.5.8-1.8zM18.9 253.2l2.8-3.3-6.3-8.3 3.7-10.6-2.7-2.2-2.3 1.6-9.2-6.3-1.2 1.8.3 7.5-3.5 3.8 1 5.1 6.1-.3 6.7 8.5z"/></svg>