<svg xmlns="http://www.w3.org/2000/svg" viewBox="0 0 250.8 45.1"><path d="M154.5 20.5c-1.3 8-2.5 16-3.8 24.1h-8.9a9859 9859 0 0 1 7-44.1c2.8 0 5.6-.1 8.4.1.4 0 .9.8 1 1.4 2.6 7.3 5.1 14.5 7.7 21.8.1.4.3.8.6 1.6.6-3.5 1.1-6.5 1.5-9.4.7-4.7 1.4-9.5 2.2-14.2.1-.5.7-1.2 1.1-1.2 2.6-.1 5.1-.1 7.9-.1-2.3 14.8-4.6 29.4-7 44.1-2.8 0-5.6 0-8.4-.1-.3 0-.8-.8-.9-1.2-2.6-7.1-5.1-14.3-7.6-21.4-.2-.5-.4-.9-.5-1.4h-.3M127.5.2c-1.7 0-3.4-.1-5 0-5.6.3-11 4.7-11.8 9.7-1.4 8-2.7 16.1-3.9 24.1-.9 5.8 1.8 9.8 7.5 10.6 3.8.5 7.8.6 11.6.2 6.1-.6 10.6-4.8 11.4-10 1.3-8.1 2.5-16.2 3.8-24.3.8-5-1.6-8.8-6.6-9.9-1-.2-2.1-.3-3.1-.4m.5 11.8c-1 6.9-2.1 13.9-3.3 20.9-.5 2.6-1.6 3.7-4.2 3.9-2 .2-4 .1-6-.1-1.9-.2-2.8-1.6-2.5-3.5 1-6.2 2-12.3 3-18.5v-.2c.2-4.6 1.7-6.5 7.5-6.1.7 0 1.7-.1 2.6.1 2 .2 3.2 1.6 2.9 3.5zM36.1 44.6h-9c-.4-2.8-.8-5.6-1.2-8.7-3.4 0-13.2-.1-13.2-.1l-4.3 8.9H0c.3-.7.5-1.4.8-2C7.1 29.1 21 .5 21 .5s6-.1 8.5-.1c2.2 14.7 4.4 29.4 6.6 44.2m-11.2-17c-.6-4.9-1.3-9.7-1.9-14.4h-.4c-2.1 4.8-4.2 9.5-6.4 14.4h8.7zm70.8-12.1c.2-1.1.3-2.1.4-3 .4-2.6-.8-4-3.5-4h-4.4c-2.5.1-4 1.2-4.4 3.7-.9 4.9-1.6 9.9-2.4 14.9l-.9 5.7c-.4 2.5.5 3.9 3 4.1 1.7.1 3.4.1 5.1 0 2.6-.2 3.9-1.5 4.4-4.2.2-1 .3-1.9.5-3h8.6c.2 9.2-4.5 15.2-13.8 15.4-3.1.1-6.2.1-9.3-.3-5.9-.9-8.6-4.7-7.7-10.6 1.2-8 2.4-16.1 3.9-24.1.9-4.7 4.1-7.6 8.5-9 4.9-1.5 10-1.2 15-.4 4.8.7 7.8 5.3 6.8 10-.4 1.6-.5 3.2-.8 4.9l-9-.1zM186.1.6h25.6l-1.2 8.1h-16.7c-.5 3.2-1 6.3-1.5 9.5h14.6c-.4 2.8-.8 5.4-1.2 8.1H191c-.5 3.4-1.1 6.6-1.6 10.1h17.3c-.4 2.8-.8 5.5-1.2 8.2h-26.3c2.2-14.7 4.5-29.2 6.9-44m23.2 44.1c4.7-6.5 15.8-23.1 15.8-23.1S220 6.2 217.8.6c3.3 0 9.4.1 9.4.1s3.8 8.5 5.3 12.4c.4-.5.7-.9 1-1.3C235.8 8.4 241 .7 241 .7h9.7c-.5.8-.8 1.4-1.3 2-4.1 6-13 19.6-13 19.6s5.3 14.7 7.8 21.1c.1.4.2.8.4 1.3-3.2 0-9.7-.1-9.7-.1s-3.9-9.6-5.7-14.1c-1.6 2.2-3.1 4.2-4.6 6.3-1.6 2.2-5.6 8-5.6 8s-6.6-.1-9.7-.1m-143.7-.1H40.7c2.3-14.7 4.6-29.3 7-44h8.9c-1.9 11.9-3.8 23.7-5.7 35.8h16c-.5 2.8-.9 5.5-1.3 8.2" fill="#343a88"/></svg>